<svg width="198" height="64" viewBox="0 0 198 64" fill="none" xmlns="http://www.w3.org/2000/svg">
<g clip-path="url(#clip0_1_1577)">
<path d="M76.6177 22.0884C79.0302 22.0884 80.5878 21.0083 81.4985 19.1363H85.7801C85.3008 22.8003 81.6902 26.2723 76.6177 26.2723C70.8583 26.2723 66.6885 22.1524 66.6885 15.8403C66.6885 9.64833 70.8583 5.52832 76.6177 5.52832C81.6422 5.52832 85.4126 9.08032 85.7801 12.6643H81.4425C80.9872 11.4964 79.7091 9.71232 76.6177 9.71232C73.2707 9.71232 71.026 12.1843 71.026 15.8803C71.026 19.6163 73.2627 22.0884 76.6177 22.0884Z" fill="white"/>
<path d="M101.105 21.264C100.706 24.704 98.0139 26.264 94.547 26.264C89.6104 26.264 86.8306 23.28 86.8306 18.68C86.8306 14.192 89.7542 11.208 94.0119 11.208C98.2695 11.208 101.161 14.08 101.273 18.4V19.88H91.2879C91.5435 21.64 92.5101 22.72 94.4672 22.72C95.8012 22.72 96.8476 22.32 97.1911 21.272H101.105V21.264ZM97.271 17.288C97.0154 15.672 95.9929 14.76 94.2356 14.76C92.5021 14.76 91.6234 15.752 91.3119 17.288H97.271Z" fill="white"/>
<path d="M103.317 11.632H107.599V13.736C108.366 12.288 109.699 11.208 111.801 11.208C114.556 11.208 117.336 12.712 117.336 17.032V25.84H113.079V18.192C113.079 15.408 111.633 14.696 110.298 14.696C108.621 14.696 107.718 15.864 107.599 17.424L107.566 25.832H103.309V11.632H103.317Z" fill="white"/>
<path d="M128.762 25.8395C127.827 26.0955 126.774 26.2635 125.782 26.2635C123.283 26.2635 121.014 25.2155 121.014 21.7755V15.1835H118.746V11.6315H121.014V8.47949H125.271V11.6315H128.762V15.1835H125.271V19.8475C125.271 21.4635 125.615 22.5435 127.173 22.5435C127.628 22.5435 128.14 22.4555 128.762 22.2875V25.8395Z" fill="white"/>
<path d="M140.795 11.6318H145.052V25.8399H140.795V24.3919C139.94 25.5279 138.639 26.2639 136.793 26.2639C132.879 26.2639 130.466 24.8399 130.466 20.2399V11.6318H134.724V19.2478C134.724 21.9759 135.834 22.7759 137.736 22.7759C139.86 22.7759 140.803 21.5279 140.803 19.1359V11.6318H140.795Z" fill="white"/>
<path d="M152.43 25.8394H148.172V11.6314H152.43V13.2233C153.508 11.8313 155.153 11.3193 157.086 11.3193V15.6073C155.129 15.6073 152.43 15.3193 152.43 18.1914V25.8394Z" fill="white"/>
<path d="M161.392 5.55176C162.926 5.55176 164.028 6.28776 164.028 7.96776C164.028 9.50376 162.917 10.2958 161.392 10.2958C159.834 10.2958 158.724 9.49575 158.724 7.96776C158.724 6.28776 159.826 5.55176 161.392 5.55176ZM159.178 11.6317H163.437V25.8397H159.178V11.6317Z" fill="white"/>
<path d="M173.309 11.208C178.022 11.208 181.137 14.192 181.137 18.68C181.137 23.28 178.013 26.264 173.309 26.264C168.716 26.264 165.592 23.28 165.592 18.68C165.584 14.184 168.707 11.208 173.309 11.208ZM173.388 22.712C175.433 22.712 176.792 21.12 176.792 18.704C176.792 16.4 175.426 14.752 173.388 14.752C171.288 14.752 169.93 16.4 169.93 18.704C169.93 21.12 171.288 22.712 173.388 22.712Z" fill="white"/>
<path d="M183.457 11.632H187.739V13.736C188.506 12.288 189.84 11.208 191.941 11.208C194.697 11.208 197.476 12.712 197.476 17.032V25.84H193.219V18.192C193.219 15.408 191.773 14.696 190.438 14.696C188.761 14.696 187.859 15.864 187.747 17.424L187.715 25.832H183.457V11.632Z" fill="white"/>
<path d="M76.4997 46.7674C79.2796 46.7674 81.6041 45.7434 81.6041 42.8714V42.5834H75.7568V39.0314H85.8618V43.2635C85.8618 46.8155 83.2816 50.9354 76.4997 50.9354C70.5725 50.9354 66.6824 46.8155 66.6824 40.5034C66.6824 34.3114 71.0518 30.1914 76.8113 30.1914C82.0035 30.1914 85.2386 33.5754 85.7499 37.3514H81.4683C80.9331 35.8715 79.5112 34.3675 76.8113 34.3675C73.9195 34.3675 71.0198 36.5274 71.0198 40.5034C71.0279 44.1834 72.985 46.7674 76.4997 46.7674Z" fill="white"/>
<path d="M92.7283 50.52H88.4707V36.312H92.7283V37.9039C93.8067 36.512 95.4524 36 97.3854 36V40.288C95.4284 40.288 92.7283 40 92.7283 42.872V50.52Z" fill="white"/>
<path d="M105.671 35.8877C110.383 35.8877 113.499 38.8717 113.499 43.3596C113.499 47.9597 110.376 50.9516 105.671 50.9516C101.078 50.9516 97.9544 47.9676 97.9544 43.3596C97.9463 38.8717 101.07 35.8877 105.671 35.8877ZM105.751 47.3916C107.796 47.3916 109.153 45.7996 109.153 43.3837C109.153 41.0797 107.787 39.4316 105.751 39.4316C103.65 39.4316 102.292 41.0797 102.292 43.3837C102.292 45.7996 103.65 47.3916 105.751 47.3916Z" fill="white"/>
<path d="M125.811 36.3115H130.068V50.5195H125.811V49.0715C124.956 50.2075 123.654 50.9435 121.808 50.9435C117.894 50.9435 115.481 49.5195 115.481 44.9195V36.3115H119.74V43.9275C119.74 46.6555 120.849 47.4475 122.751 47.4475C124.875 47.4475 125.818 46.1995 125.818 43.8075V36.3115H125.811Z" fill="white"/>
<path d="M133.194 36.3117H137.452V37.2796C138.562 36.3997 139.976 35.8877 141.597 35.8877C145.687 35.8877 148.411 38.8717 148.411 43.3596C148.411 47.9597 145.687 50.9516 141.597 50.9516C139.896 50.9516 138.506 50.3517 137.452 49.4156V56.2077H133.194V36.3117ZM140.735 47.4477C142.748 47.4477 144.058 45.8316 144.058 43.4157C144.058 41.0556 142.756 39.4636 140.735 39.4636C138.834 39.4636 137.443 40.6317 137.443 43.4157C137.443 46.2317 138.834 47.4477 140.735 47.4477Z" fill="white"/>
<path d="M0 10.1523L7.72448 7.1123V52.4083C2.81979 48.0563 0 42.2323 0 36.1683V10.1523Z" fill="#EE5B2C"/>
<path d="M25.7889 0L11.9375 5.44799V55.4719L25.7889 64L40.2074 55.08C40.3272 55.008 40.439 54.936 40.5509 54.856V5.808L25.7889 0ZM34.5677 24.12H30.3581V12.4961L25.757 10.944L21.2197 12.512V49.216L25.7409 52.04L30.35 48.984V36.392H34.5598V51.24L25.8128 57.04L17.002 51.552V9.504L25.733 6.488L34.5598 9.46399V24.12H34.5677Z" fill="#EE5B2C"/>
<path d="M51.5751 10.1517V36.1677C51.5751 41.8557 49.0987 47.3196 44.7612 51.5356V7.47168L51.5751 10.1517Z" fill="#EE5B2C"/>
</g>
<defs>
<clipPath id="clip0_1_1577">
<rect width="198" height="64" fill="white"/>
</clipPath>
</defs>
</svg>
