<svg width="482" height="435" viewBox="0 0 482 435" fill="none" xmlns="http://www.w3.org/2000/svg">
<rect width="481" height="434" transform="translate(0.5 0.5)" fill="white"/>
<path d="M270.238 1.99381L253.481 6.3043L47.0277 59.4106L30.2704 63.7211C22.1366 65.8231 15.1709 71.0576 10.9014 78.2761C6.63188 85.4947 5.40731 94.1078 7.49633 102.226L80.1597 383.289C82.267 391.403 87.5147 398.351 94.7514 402.61C101.988 406.868 110.623 408.09 118.762 406.006L118.805 405.995L358.686 344.29L358.73 344.279C366.863 342.177 373.829 336.942 378.099 329.724C382.368 322.505 383.593 313.892 381.504 305.774L308.84 24.7108C306.733 16.5974 301.485 9.64916 294.249 5.39037C287.012 1.13158 278.377 -0.0899416 270.238 1.99381Z" fill="#F2F2F2"/>
<path d="M272.57 10.708L252.709 15.8161L52.3001 67.3587L32.439 72.4667C26.6428 73.9643 21.679 77.6938 18.6365 82.8369C15.594 87.98 14.7213 94.1167 16.21 99.9007L88.9226 381.106C90.4243 386.887 94.1638 391.838 99.3208 394.872C104.478 397.906 110.631 398.777 116.43 397.292L116.474 397.281L356.518 335.544L356.561 335.533C362.357 334.036 367.321 330.306 370.364 325.163C373.406 320.02 374.279 313.883 372.79 308.099L300.077 26.8935C298.576 21.1129 294.836 16.1624 289.679 13.1281C284.523 10.0938 278.369 9.22345 272.57 10.708Z" fill="white"/>
<path d="M257.542 102.425L136.1 133.832C134.744 134.183 133.304 133.979 132.098 133.265C130.891 132.551 130.017 131.386 129.667 130.026C129.318 128.666 129.521 127.222 130.233 126.012C130.944 124.802 132.106 123.925 133.463 123.574L254.904 92.1666C256.26 91.8173 257.699 92.022 258.904 92.736C260.11 93.4499 260.983 94.6146 261.333 95.9741C261.682 97.3336 261.479 98.7767 260.769 99.9862C260.058 101.196 258.897 102.073 257.542 102.425Z" fill="#F2F2F2"/>
<path d="M282.566 113.325L141.053 149.834C139.706 150.181 138.277 149.979 137.079 149.272C135.881 148.565 135.013 147.411 134.666 146.064C134.319 144.717 134.521 143.287 135.227 142.089C135.934 140.89 137.088 140.022 138.434 139.675L279.947 103.166C281.294 102.819 282.723 103.021 283.921 103.728C285.119 104.435 285.987 105.589 286.334 106.936C286.681 108.283 286.479 109.713 285.773 110.911C285.066 112.11 283.912 112.978 282.566 113.325Z" fill="#F2F2F2"/>
<path d="M277.537 179.425L156.1 210.832C155.429 211.006 154.729 211.045 154.043 210.948C153.356 210.851 152.695 210.619 152.098 210.265C151.5 209.912 150.978 209.444 150.561 208.888C150.144 208.332 149.84 207.7 149.667 207.026C149.494 206.352 149.455 205.651 149.552 204.963C149.649 204.274 149.88 203.611 150.233 203.012C150.585 202.413 151.052 201.889 151.606 201.471C152.16 201.053 152.791 200.748 153.463 200.575L274.9 169.168C275.571 168.994 276.271 168.955 276.957 169.052C277.644 169.149 278.305 169.381 278.902 169.735C279.5 170.088 280.022 170.556 280.439 171.112C280.856 171.668 281.16 172.3 281.333 172.974C281.506 173.648 281.545 174.349 281.448 175.037C281.351 175.726 281.12 176.389 280.767 176.988C280.415 177.587 279.948 178.111 279.394 178.529C278.84 178.947 278.209 179.252 277.537 179.425Z" fill="#F2F2F2"/>
<path d="M302.566 191.325L161.053 227.834C160.386 228.006 159.692 228.045 159.01 227.948C158.328 227.852 157.672 227.622 157.079 227.272C156.486 226.922 155.968 226.459 155.554 225.908C155.14 225.358 154.838 224.731 154.666 224.064C154.494 223.397 154.455 222.703 154.552 222.021C154.648 221.338 154.877 220.682 155.227 220.089C155.577 219.495 156.041 218.977 156.591 218.563C157.141 218.148 157.767 217.847 158.434 217.675L299.947 181.166C301.294 180.819 302.723 181.021 303.921 181.728C305.119 182.435 305.987 183.589 306.334 184.936C306.681 186.283 306.479 187.713 305.773 188.911C305.066 190.11 303.912 190.978 302.566 191.325Z" fill="#F2F2F2"/>
<path d="M297.537 256.426L176.097 287.833C174.741 288.183 173.302 287.978 172.096 287.264C170.891 286.55 170.017 285.386 169.667 284.026C169.318 282.666 169.521 281.223 170.232 280.013C170.943 278.804 172.104 277.927 173.459 277.575L294.9 246.168C296.256 245.817 297.696 246.021 298.902 246.735C300.109 247.449 300.983 248.614 301.333 249.974C301.682 251.334 301.479 252.778 300.767 253.988C300.056 255.198 298.894 256.075 297.537 256.426Z" fill="#F2F2F2"/>
<path d="M322.54 268.325L180.1 304.833C179.429 305.005 178.73 305.045 178.043 304.949C177.356 304.853 176.696 304.623 176.098 304.273C175.501 303.924 174.978 303.46 174.561 302.909C174.144 302.359 173.84 301.732 173.667 301.064C173.494 300.397 173.455 299.702 173.552 299.02C173.649 298.337 173.881 297.68 174.233 297.087C174.586 296.493 175.053 295.975 175.607 295.561C176.162 295.147 176.793 294.845 177.465 294.674L319.904 258.166C321.26 257.819 322.698 258.021 323.904 258.728C325.11 259.435 325.983 260.589 326.333 261.936C326.682 263.283 326.479 264.713 325.768 265.911C325.057 267.109 323.895 267.978 322.54 268.325Z" fill="#F2F2F2"/>
<path d="M115.597 165.715L72.5507 176.919C71.8993 177.088 71.2082 176.989 70.629 176.644C70.0497 176.299 69.6297 175.737 69.4611 175.08L59.5798 136.404C59.4125 135.746 59.5105 135.049 59.8523 134.464C60.194 133.879 60.7516 133.455 61.4026 133.285L104.449 122.081C105.101 121.912 105.792 122.011 106.371 122.356C106.95 122.7 107.37 123.263 107.539 123.92L117.42 162.596C117.587 163.254 117.489 163.951 117.148 164.536C116.806 165.121 116.248 165.545 115.597 165.715Z" fill="#E6E6E6"/>
<path d="M135.597 242.92L92.5508 253.921C91.8993 254.087 91.2082 253.99 90.629 253.651C90.0497 253.312 89.6297 252.76 89.4611 252.115L79.5798 214.142C79.4125 213.496 79.5106 212.811 79.8523 212.237C80.194 211.663 80.7516 211.247 81.4026 211.08L124.449 200.079C125.101 199.913 125.792 200.01 126.371 200.349C126.95 200.688 127.37 201.24 127.539 201.885L137.42 239.858C137.587 240.504 137.489 241.189 137.148 241.763C136.806 242.337 136.248 242.753 135.597 242.92Z" fill="#E6E6E6"/>
<path d="M155.597 319.125L112.551 329.922C111.899 330.085 111.208 329.99 110.629 329.657C110.05 329.325 109.63 328.783 109.461 328.149L99.5798 290.88C99.4125 290.246 99.5105 289.574 99.8523 289.011C100.194 288.447 100.752 288.039 101.403 287.875L144.449 277.078C145.101 276.915 145.792 277.01 146.371 277.343C146.95 277.675 147.37 278.217 147.539 278.851L157.42 316.12C157.587 316.754 157.489 317.426 157.148 317.989C156.806 318.553 156.248 318.961 155.597 319.125Z" fill="#E6E6E6"/>
<path d="M437.829 73H190.171C181.774 73.0095 173.724 76.3479 167.787 82.283C161.849 88.2181 158.509 96.2651 158.5 104.659V395.341C158.509 403.735 161.849 411.782 167.787 417.717C173.724 423.652 181.774 426.991 190.171 427H437.829C446.226 426.991 454.276 423.652 460.213 417.717C466.151 411.782 469.491 403.735 469.5 395.341V104.659C469.491 96.2651 466.151 88.2181 460.213 82.283C454.276 76.3479 446.226 73.0095 437.829 73Z" fill="#E6E6E6"/>
<path d="M437.928 82H190.072C184.088 82.0067 178.35 84.3857 174.119 88.6151C169.887 92.8445 167.507 98.5788 167.5 104.56V395.44C167.507 401.421 169.887 407.156 174.119 411.385C178.35 415.614 184.088 417.993 190.072 418H437.928C443.913 417.993 449.65 415.614 453.882 411.385C458.113 407.155 460.493 401.421 460.5 395.44V104.56C460.493 98.5788 458.113 92.8445 453.882 88.6152C449.65 84.3858 443.913 82.0068 437.928 82Z" fill="white"/>
<path d="M400.223 243H274.788C274.094 243.001 273.407 242.859 272.765 242.583C272.123 242.307 271.54 241.902 271.049 241.391C270.558 240.88 270.169 240.274 269.903 239.606C269.637 238.938 269.5 238.223 269.5 237.5C269.5 236.777 269.637 236.062 269.903 235.394C270.169 234.726 270.558 234.12 271.049 233.609C271.54 233.098 272.123 232.693 272.765 232.417C273.407 232.141 274.094 231.999 274.788 232H400.223C401.623 232.002 402.966 232.582 403.955 233.613C404.944 234.644 405.5 236.042 405.5 237.5C405.5 238.958 404.944 240.356 403.955 241.387C402.966 242.418 401.623 242.998 400.223 243Z" fill="#E6E6E6"/>
<path d="M422.211 260H274.795C274.1 260.001 273.412 259.859 272.769 259.583C272.127 259.307 271.543 258.902 271.051 258.391C270.56 257.88 270.169 257.274 269.903 256.606C269.637 255.938 269.5 255.223 269.5 254.5C269.5 253.777 269.637 253.062 269.903 252.394C270.169 251.726 270.56 251.12 271.051 250.609C271.543 250.098 272.127 249.693 272.769 249.417C273.412 249.141 274.1 248.999 274.795 249H422.211C423.614 249 424.959 249.579 425.951 250.611C426.943 251.642 427.5 253.041 427.5 254.5C427.5 255.959 426.943 257.358 425.951 258.389C424.959 259.421 423.614 260 422.211 260Z" fill="#E6E6E6"/>
<path d="M400.218 322H274.788C274.094 322.001 273.406 321.872 272.765 321.621C272.123 321.37 271.54 321.002 271.049 320.538C270.558 320.073 270.168 319.522 269.903 318.915C269.637 318.308 269.5 317.657 269.5 317C269.5 316.343 269.637 315.692 269.903 315.085C270.168 314.478 270.558 313.927 271.049 313.462C271.54 312.998 272.123 312.63 272.765 312.379C273.406 312.128 274.094 311.999 274.788 312H400.218C401.619 312 402.962 312.527 403.953 313.464C404.944 314.402 405.5 315.674 405.5 317C405.5 318.326 404.944 319.598 403.953 320.536C402.962 321.473 401.619 322 400.218 322Z" fill="#E6E6E6"/>
<path d="M422.205 339H274.795C274.1 339.001 273.412 338.872 272.769 338.621C272.127 338.37 271.543 338.002 271.051 337.538C270.559 337.073 270.169 336.522 269.903 335.915C269.637 335.308 269.5 334.657 269.5 334C269.5 333.343 269.637 332.692 269.903 332.085C270.169 331.478 270.559 330.927 271.051 330.462C271.543 329.998 272.127 329.63 272.769 329.379C273.412 329.128 274.1 328.999 274.795 329H422.205C422.9 328.999 423.588 329.128 424.231 329.379C424.873 329.63 425.457 329.998 425.949 330.462C426.441 330.927 426.831 331.478 427.097 332.085C427.363 332.692 427.5 333.343 427.5 334C427.5 334.657 427.363 335.308 427.097 335.915C426.831 336.522 426.441 337.073 425.949 337.538C425.457 338.002 424.873 338.37 424.231 338.621C423.588 338.872 422.9 339.001 422.205 339Z" fill="#E6E6E6"/>
<path d="M246.99 268H203.01C202.344 267.999 201.706 267.736 201.236 267.267C200.765 266.798 200.501 266.163 200.5 265.5V226.5C200.501 225.837 200.765 225.202 201.236 224.733C201.706 224.264 202.344 224.001 203.01 224H246.99C247.656 224.001 248.294 224.264 248.764 224.733C249.235 225.202 249.499 225.837 249.5 226.5V265.5C249.499 266.163 249.235 266.798 248.764 267.267C248.294 267.736 247.656 267.999 246.99 268Z" fill="#E6E6E6"/>
<path d="M246.99 348H203.01C202.344 347.999 201.706 347.73 201.236 347.25C200.765 346.771 200.501 346.121 200.5 345.443V305.557C200.501 304.879 200.765 304.229 201.236 303.75C201.706 303.27 202.344 303.001 203.01 303H246.99C247.656 303.001 248.294 303.27 248.764 303.75C249.235 304.229 249.499 304.879 249.5 305.557V345.443C249.499 346.121 249.235 346.771 248.764 347.25C248.294 347.73 247.656 347.999 246.99 348Z" fill="#E6E6E6"/>
<path d="M400.271 154H308.729C307.342 154 306.012 153.421 305.032 152.389C304.051 151.358 303.5 149.959 303.5 148.5C303.5 147.041 304.051 145.642 305.032 144.611C306.012 143.579 307.342 143 308.729 143H400.271C401.658 143 402.988 143.579 403.968 144.611C404.949 145.642 405.5 147.041 405.5 148.5C405.5 149.959 404.949 151.358 403.968 152.389C402.988 153.421 401.658 154 400.271 154Z" fill="#7BDDE2"/>
<path d="M422.253 171H308.747C308.058 171 307.376 170.858 306.739 170.581C306.103 170.305 305.524 169.9 305.037 169.389C304.55 168.878 304.163 168.272 303.899 167.605C303.636 166.937 303.5 166.222 303.5 165.5C303.5 164.778 303.636 164.063 303.899 163.395C304.163 162.728 304.55 162.122 305.037 161.611C305.524 161.1 306.103 160.695 306.739 160.419C307.376 160.142 308.058 160 308.747 160H422.253C423.644 160 424.979 160.579 425.963 161.611C426.947 162.642 427.5 164.041 427.5 165.5C427.5 166.959 426.947 168.358 425.963 169.389C424.979 170.421 423.644 171 422.253 171Z" fill="#7BDDE2"/>
<path d="M287.976 193H203.024C202.355 192.999 201.713 192.734 201.24 192.264C200.767 191.793 200.501 191.154 200.5 190.488V124.512C200.501 123.846 200.767 123.207 201.24 122.736C201.713 122.266 202.355 122.001 203.024 122H287.976C288.645 122.001 289.287 122.266 289.76 122.736C290.233 123.207 290.499 123.846 290.5 124.512V190.488C290.499 191.154 290.233 191.793 289.76 192.264C289.287 192.734 288.645 192.999 287.976 193Z" fill="#3541AB"/>
</svg>
