<svg width="176" height="64" viewBox="0 0 176 64" fill="none" xmlns="http://www.w3.org/2000/svg">
<path d="M162.667 29.3336V15.5256H166.23V17.7901C167.009 16.216 168.373 15.1113 170.516 15.1113C173.189 15.1113 176 16.5474 176 20.8831V29.3336H172.437V21.8496C172.437 18.7014 170.739 18.011 169.264 18.011C167.399 18.011 166.369 19.2813 166.23 21.104L166.202 29.3336H162.667Z" fill="white"/>
<path d="M145.778 22.1688C145.778 17.9289 148.833 15.1113 153.278 15.1113C157.861 15.1113 160.889 17.9289 160.889 22.1688C160.889 26.5159 157.861 29.3336 153.278 29.3336C148.833 29.3336 145.778 26.5159 145.778 22.1688ZM149.417 22.1956C149.417 24.7717 150.972 26.4623 153.361 26.4623C155.694 26.4623 157.278 24.7717 157.278 22.1956C157.278 19.7268 155.694 17.9558 153.361 17.9558C150.972 17.9558 149.417 19.7268 149.417 22.1956Z" fill="white"/>
<path d="M140.444 11.8373C140.444 10.4091 141.355 9.77734 142.68 9.77734C143.978 9.77734 144.889 10.4091 144.889 11.8373C144.889 13.1282 143.978 13.7873 142.68 13.7873C141.355 13.7873 140.444 13.1282 140.444 11.8373ZM140.858 29.3329V15.6001H144.364V29.3329H140.858Z" fill="white"/>
<path d="M135.051 21.7614V29.3336H131.556V15.3628H135.051V17.1231C136.061 15.6702 137.644 15.1113 139.556 15.1113V18.6878C137.453 18.6878 135.051 18.8275 135.051 21.7614Z" fill="white"/>
<path d="M126.114 22.9126V16H129.778V28.945H126.114V27.3398C125.22 28.5566 123.835 29.3333 121.816 29.3333C118.008 29.3333 115.556 27.9353 115.556 23.9223V16H119.219V23.1456C119.219 25.7864 120.604 26.6149 122.595 26.6149C124.903 26.6149 126.114 25.3204 126.114 22.9126Z" fill="white"/>
<path d="M115.529 26.0095V28.9009C114.745 29.1711 113.799 29.3332 112.908 29.3332C110.557 29.3332 108.747 28.1172 108.747 25.2799V18.2811H106.667V15.4168H108.747V12.4443H112.205V15.4168H115.556V18.2811H112.205V23.7396C112.205 25.1718 112.476 26.3067 113.989 26.3067C114.448 26.3067 114.988 26.1986 115.529 26.0095Z" fill="white"/>
<path d="M92.4443 29.3336V15.5256H96.0073V17.7901C96.7867 16.216 98.1507 15.1113 100.294 15.1113C102.966 15.1113 105.778 16.5474 105.778 20.8831V29.3336H102.215V21.8496C102.215 18.7014 100.517 18.011 99.0414 18.011C97.1764 18.011 96.1465 19.2813 96.0073 21.104L95.9795 29.3336H92.4443Z" fill="white"/>
<path d="M87.3531 24.8254H90.4545C90.0039 27.8577 87.5387 29.3336 84.4108 29.3336C79.931 29.3336 77.3333 26.5159 77.3333 22.1688C77.3333 17.9289 80.0105 15.1113 83.9602 15.1113C87.8833 15.1113 90.5606 17.8216 90.6666 21.9541V23.1616H80.8588C81.1238 25.1742 82.2372 26.4623 84.3843 26.4623C85.7892 26.4623 86.929 25.9256 87.3531 24.8254ZM80.8853 21.0417H87.4857C87.2206 19.0828 86.0808 17.9558 84.1192 17.9558C82.2107 17.9558 81.1769 19.1902 80.8853 21.0417Z" fill="white"/>
<path d="M62.1579 19.5283C62.1579 23.4127 64.4942 25.9843 68.0122 25.9843C70.3754 25.9843 72.0135 24.9664 72.9803 23.1716H76.4445C75.8 26.413 72.5237 29.3329 68.0122 29.3329C62.5607 29.3329 58.6667 25.4486 58.6667 19.5015C58.6667 13.6617 62.5607 9.77734 68.0122 9.77734C72.47 9.77734 75.8537 12.7509 76.4445 15.9119H72.9266C72.2821 14.6796 70.8856 13.0991 68.0122 13.0991C64.4942 13.0991 62.1579 15.6708 62.1579 19.5283Z" fill="white"/>
<path d="M151.111 47.1108V37.5419H152.264V38.7816C152.764 37.8344 153.694 37.333 154.875 37.333C156.875 37.333 158.222 38.8094 158.222 40.9962C158.222 43.2526 156.875 44.7151 154.875 44.7151C153.667 44.7151 152.75 44.1858 152.264 43.1969V47.1108H151.111ZM152.264 40.9962C152.264 42.7233 153.236 43.754 154.639 43.754C156.083 43.754 157.056 42.6258 157.056 40.9962C157.056 39.3944 156.083 38.308 154.639 38.308C153.236 38.308 152.264 39.3248 152.264 40.9962Z" fill="white"/>
<path d="M148.043 41.1164H148.499C148.499 43.0495 147.43 44.4441 145.463 44.4441C143.559 44.4441 142.222 43.588 142.222 41.6549V37.333H143.512V41.3649C143.512 42.9529 144.535 43.4914 145.699 43.4914C147.131 43.4914 148.043 42.6491 148.043 41.1164ZM149.333 37.333V44.237H148.043V37.333H149.333Z" fill="white"/>
<path d="M133.333 40.8617C133.333 38.7552 134.963 37.333 137.311 37.333C139.718 37.333 141.333 38.7552 141.333 40.8617C141.333 43.0353 139.718 44.4441 137.311 44.4441C134.963 44.4441 133.333 43.0353 133.333 40.8617ZM134.604 40.8617C134.604 42.445 135.696 43.5049 137.326 43.5049C138.971 43.5049 140.062 42.445 140.062 40.8617C140.062 39.3456 138.971 38.2588 137.326 38.2588C135.696 38.2588 134.604 39.3456 134.604 40.8617Z" fill="white"/>
<path d="M130.954 40.5577H130.543C130.543 38.1779 131.69 37.333 133.333 37.333V38.5018C132.016 38.5018 130.954 38.9805 130.954 40.5577ZM129.778 44.4441V37.4034H130.954V44.4441H129.778Z" fill="white"/>
<path d="M119.463 39.5291C119.463 41.8329 120.907 43.3732 123.228 43.3732C125.534 43.3732 126.774 42.1276 126.774 40.3729V39.9577H123.067V39.0201H128V40.4801C128 42.4892 126.584 44.4448 123.228 44.4448C120.222 44.4448 118.222 42.5026 118.222 39.5291C118.222 36.5958 120.455 34.667 123.432 34.667C125.577 34.667 127.037 35.7519 127.577 37.1449H126.292C125.782 36.3547 124.877 35.7251 123.432 35.7251C121.258 35.7251 119.463 37.1851 119.463 39.5291Z" fill="white"/>
<path d="M112.889 37.333L108.992 47.1108H107.658L108.734 44.3877L105.778 37.333H107.112L109.402 42.8921L111.555 37.333H112.889Z" fill="white"/>
<path d="M105.73 43.191V44.2024C105.428 44.3591 104.921 44.4446 104.46 44.4446C103.127 44.4446 102.476 43.5899 102.476 42.55V35.5557H103.794V42.0229C103.794 42.6497 103.905 43.4047 104.809 43.4047C105.111 43.4047 105.492 43.2907 105.73 43.191ZM101.333 38.0913V37.1084H105.778V38.0913H101.333Z" fill="white"/>
<path d="M98.875 44.4448V37.5298H100.188V44.4448H98.875ZM98.6667 35.4138C98.6667 34.9021 99.0351 34.667 99.5476 34.667C100.076 34.667 100.445 34.9021 100.445 35.4138C100.445 35.8979 100.076 36.1053 99.5476 36.1053C99.0351 36.1053 98.6667 35.8979 98.6667 35.4138Z" fill="white"/>
<path d="M95.3979 40.5577H94.9871C94.9871 38.1779 96.1345 37.333 97.7777 37.333V38.5018C96.4603 38.5018 95.3979 38.9805 95.3979 40.5577ZM94.2222 44.4441V37.4034H95.3979V44.4441H94.2222Z" fill="white"/>
<path d="M91.1543 41.1164H91.6105C91.6105 43.0495 90.5407 44.4441 88.5742 44.4441C86.6705 44.4441 85.3333 43.588 85.3333 41.6549V37.333H86.6233V41.3649C86.6233 42.9529 87.6459 43.4914 88.8101 43.4914C90.2418 43.4914 91.1543 42.6491 91.1543 41.1164ZM92.4444 37.333V44.237H91.1543V37.333H92.4444Z" fill="white"/>
<path d="M81.1129 38.2588C79.5443 38.2588 78.6031 39.3322 78.6031 40.8617C78.6031 42.445 79.6488 43.5049 81.1428 43.5049C82.1736 43.5049 82.8459 43.1024 83.2642 42.4047H84.4444C83.9663 43.8538 82.6516 44.4441 81.1129 44.4441C78.8122 44.4441 77.3333 43.1158 77.3333 40.8617C77.3333 38.7552 78.8272 37.333 81.098 37.333C82.8459 37.333 84.0261 38.1783 84.4294 39.359H83.2343C82.8608 38.6747 82.1288 38.2588 81.1129 38.2588Z" fill="white"/>
<path d="M70.5618 40.8617C70.5618 42.445 71.5013 43.5049 73.1056 43.5049C74.0306 43.5049 74.8256 43.0756 75.1725 42.4181H76.2854C75.9385 43.7062 74.6232 44.4441 73.0767 44.4441C70.7641 44.4441 69.3333 43.0353 69.3333 40.8617C69.3333 38.7552 70.7641 37.333 72.8599 37.333C74.999 37.333 76.4444 38.7552 76.4444 40.8617H75.317C75.3604 39.3053 74.4353 38.2588 72.9177 38.2588C71.429 38.2588 70.5618 39.3322 70.5618 40.8617ZM69.868 41.224V40.486H75.794L76.4444 40.7946V41.224H69.868Z" fill="white"/>
<path d="M67.1559 41.4445C67.1559 38.8192 60.5342 40.7748 60.5342 37.2923C60.5342 35.4171 62.302 34.667 64.2496 34.667C67.0511 34.667 67.92 36.1002 67.8451 37.0512H66.6466C66.6915 36.5154 66.0773 35.7251 64.2496 35.7251C62.6166 35.7251 61.8076 36.4618 61.8076 37.2789C61.8076 39.7166 68.4443 37.7075 68.4443 41.5248C68.4443 43.3866 66.7065 44.4448 64.2945 44.4448C62.3769 44.4448 60.4443 43.5741 60.4443 41.632H61.6878C61.6428 42.7303 62.7065 43.3732 64.3245 43.3732C65.7777 43.3732 67.1559 42.7839 67.1559 41.4445Z" fill="white"/>
<path d="M0 10.4424L7.79729 7.40723V52.6315C2.84637 48.2864 0 42.4716 0 36.4172V10.4424Z" fill="#FF481D"/>
<path d="M25.6617 0L11.6958 5.44269V55.418L25.6617 63.9377L40.1994 55.0264C40.3202 54.9545 40.4329 54.8826 40.5458 54.8026V5.80235L25.6617 0ZM34.5131 24.0966H30.2687V12.4839L25.6295 10.9334L21.0548 12.4998V49.1681L25.6133 51.9893L30.2605 48.9364V36.3566H34.5051V51.1901L25.6858 56.9846L16.8022 51.5018V9.49475L25.6053 6.48169L34.5051 9.45479V24.0966H34.5131Z" fill="#FF481D"/>
<path d="M51.8518 10.4526V36.2329C51.8518 41.8694 49.1597 47.2838 44.4443 51.4617V7.79688L51.8518 10.4526Z" fill="#FF481D"/>
</svg>
