<svg width="58" height="62" viewBox="0 0 58 62" fill="none" xmlns="http://www.w3.org/2000/svg">
<path d="M28.8716 0C28.8716 0 24.3308 4.71256 13.6865 6.0845C11.8348 6.32353 10.2185 6.42146 8.81249 6.42146C2.48315 6.42146 0.423171 4.43908 0.423171 4.43908C0.423171 4.43908 -5.72772 40.9485 28.8712 61.0114C63.4675 40.9481 57.3166 4.43908 57.3166 4.43908C57.3166 4.43908 55.2575 6.42146 48.9273 6.42146C47.5218 6.42146 45.9046 6.32353 44.0533 6.0845C33.4115 4.71256 28.8716 0 28.8716 0Z" fill="url(#paint0_radial_604_1486)"/>
<path d="M28.8713 7.71484C31.9604 9.49679 36.6808 11.4792 43.2484 12.3257C45.2457 12.5834 47.1567 12.7142 48.9278 12.7142C49.8109 12.7142 50.6401 12.6822 51.4182 12.6241C51.3231 15.8062 50.9256 19.8232 49.835 24.2009C46.7654 36.5239 39.7206 46.4005 28.8713 53.6088C18.0211 46.4005 10.9759 36.5239 7.90584 24.2009C6.81485 19.822 6.4173 15.805 6.32227 12.6241C7.10036 12.6822 7.9295 12.7142 8.81258 12.7142C10.5837 12.7142 12.4947 12.5834 14.4908 12.3257C21.06 11.4792 25.7817 9.49637 28.8713 7.71484Z" fill="url(#paint1_radial_604_1486)"/>
<g style="mix-blend-mode:color-dodge">
<path d="M28.8715 53.9866L28.6976 53.8708C17.7848 46.6211 10.6869 36.664 7.60064 24.2771C6.66195 20.5099 6.1262 16.5924 6.00793 12.6339L5.99756 12.2845L6.34573 12.3106C8.77629 12.4924 11.511 12.3932 14.4508 12.0139C21.1947 11.1445 25.9297 9.0476 28.7138 7.44203L28.8711 7.35156L29.0283 7.44203C31.8116 9.0476 36.5449 11.1441 43.2884 12.0135C46.2282 12.3932 48.9613 12.4928 51.3947 12.3106L51.7429 12.2845L51.7325 12.6339C51.6143 16.5933 51.0785 20.5107 50.1402 24.2775C47.0544 36.6648 39.9569 46.6215 29.0454 53.8713L28.8715 53.9866ZM6.64825 12.9621C6.7852 16.7576 7.31057 20.5115 8.21108 24.1248C11.2417 36.2892 18.1919 46.0804 28.8715 53.2305C39.5503 46.0808 46.4992 36.2892 49.5298 24.1248C50.4299 20.5119 50.9553 16.758 51.0922 12.9617C48.7002 13.1132 46.0514 13.0041 43.2079 12.6372C36.486 11.7703 31.7237 9.6983 28.8711 8.07654C26.0176 9.6983 21.2532 11.7707 14.5313 12.6372C11.6882 13.0045 9.03815 13.1128 6.64825 12.9621Z" fill="url(#paint2_radial_604_1486)" fill-opacity="0.6"/>
</g>
<g style="mix-blend-mode:color-dodge">
<path d="M28.8716 0.856943C30.2771 2.07409 34.9826 5.54958 43.9732 6.70863C45.7311 6.93563 47.3981 7.05058 48.9277 7.05058C53.2087 7.05058 55.6368 6.15504 56.8232 5.5168C57.1174 8.15734 57.6632 15.8748 55.4438 25.1045C53.8395 31.7766 51.1247 37.9246 47.374 43.3779C42.7499 50.1018 36.5259 55.7879 28.8712 60.2826C21.2159 55.7879 14.9912 50.1018 10.3666 43.3779C6.61598 37.9246 3.90074 31.7762 2.29641 25.1045C0.0770739 15.8748 0.622778 8.15734 0.917002 5.5168C2.10386 6.15504 4.53193 7.05058 8.81249 7.05058C10.3421 7.05058 12.0091 6.93563 13.7666 6.70863C22.7593 5.54958 27.4656 2.07409 28.8716 0.856943ZM28.8716 0C28.8716 0 24.3308 4.71256 13.6865 6.0845C11.8348 6.32353 10.2185 6.42146 8.81249 6.42146C2.48315 6.42146 0.423171 4.43908 0.423171 4.43908C0.423171 4.43908 -5.72772 40.9485 28.8712 61.0114C63.4675 40.9481 57.3166 4.43908 57.3166 4.43908C57.3166 4.43908 55.2575 6.42146 48.9273 6.42146C47.5218 6.42146 45.9046 6.32353 44.0533 6.0845C33.4115 4.71256 28.8716 0 28.8716 0Z" fill="url(#paint3_radial_604_1486)" fill-opacity="0.6"/>
</g>
<path d="M38.7498 19.5059L26.93 31.7639L22.2508 26.9109L19 30.2819L26.93 38.5059L42 22.8772L38.7498 19.5059Z" fill="#75E3EA"/>
<defs>
<radialGradient id="paint0_radial_604_1486" cx="0" cy="0" r="1" gradientUnits="userSpaceOnUse" gradientTransform="translate(31 -3.5) rotate(89.5559) scale(64.5019 64.5019)">
<stop stop-color="#679BFA"/>
<stop offset="0.45" stop-color="#3B8ADE"/>
<stop offset="1" stop-color="#272D63"/>
</radialGradient>
<radialGradient id="paint1_radial_604_1486" cx="0" cy="0" r="1" gradientUnits="userSpaceOnUse" gradientTransform="translate(29 54) rotate(-90) scale(50 30.3813)">
<stop stop-color="#51F4F7"/>
<stop offset="0.505" stop-color="#3968B2"/>
<stop offset="1" stop-color="#30478D"/>
</radialGradient>
<radialGradient id="paint2_radial_604_1486" cx="0" cy="0" r="1" gradientUnits="userSpaceOnUse" gradientTransform="translate(28.8702 6.11511) scale(64.2421)">
<stop stop-color="#61DEBB"/>
<stop offset="1" stop-color="#272D63"/>
</radialGradient>
<radialGradient id="paint3_radial_604_1486" cx="0" cy="0" r="1" gradientUnits="userSpaceOnUse" gradientTransform="translate(29.3271 61.4118) scale(86.6894 86.6894)">
<stop offset="0.351" stop-color="#7BDDE2"/>
<stop offset="1" stop-color="#272D63"/>
</radialGradient>
</defs>
</svg>
