<svg width="25" height="24" viewBox="0 0 25 24" fill="none" xmlns="http://www.w3.org/2000/svg">
<rect x="0.130005" width="24" height="24" rx="12" fill="#1986C3"/>
<g clip-path="url(#clip0_258_682)">
<path d="M18.8494 6.35187C18.9707 6.4732 19.0337 6.61787 19.0384 6.78587C19.043 6.95387 18.9894 7.09853 18.8774 7.21987L10.2114 16.3199C10.0994 16.4505 9.95236 16.5159 9.77036 16.5159C9.58836 16.5159 9.44136 16.4505 9.32936 16.3199L5.38136 12.1899C5.26936 12.0592 5.21569 11.9099 5.22036 11.7419C5.22502 11.5739 5.28802 11.4315 5.40936 11.3149C5.53069 11.1982 5.67536 11.1422 5.84336 11.1469C6.01136 11.1515 6.15602 11.2145 6.27736 11.3359L9.76336 15.0039L17.9814 6.37987C18.1027 6.25853 18.2474 6.19553 18.4154 6.19087C18.5834 6.1862 18.728 6.23987 18.8494 6.35187Z" fill="white"/>
</g>
<defs>
<clipPath id="clip0_258_682">
<rect width="14" height="14" fill="white" transform="matrix(1 0 0 -1 5.13 18.7)"/>
</clipPath>
</defs>
</svg>
