<svg width="44" height="44" viewBox="0 0 44 44" fill="none" xmlns="http://www.w3.org/2000/svg">
<path d="M0 22C0 12.6177 0 7.92655 2.47976 4.69486C3.11817 3.86288 3.86288 3.11817 4.69486 2.47976C7.92655 0 12.6177 0 22 0C31.3823 0 36.0735 0 39.3051 2.47976C40.1371 3.11817 40.8818 3.86288 41.5202 4.69486C44 7.92655 44 12.6177 44 22C44 31.3823 44 36.0735 41.5202 39.3051C40.8818 40.1371 40.1371 40.8818 39.3051 41.5202C36.0735 44 31.3823 44 22 44C12.6177 44 7.92655 44 4.69486 41.5202C3.86288 40.8818 3.11817 40.1371 2.47976 39.3051C0 36.0735 0 31.3823 0 22Z" fill="#3541AB"/>
<path opacity="0.12" fill-rule="evenodd" clip-rule="evenodd" d="M21.6667 32.1025C27.1896 32.1025 31.6667 27.6254 31.6667 22.1025C31.6667 16.5797 27.1896 12.1025 21.6667 12.1025C16.1439 12.1025 11.6667 16.5797 11.6667 22.1025C11.6667 27.6254 16.1439 32.1025 21.6667 32.1025ZM20.0752 20.9155C19.9458 21.0886 19.8539 21.2907 19.6702 21.695L17.6667 26.1025L22.0743 24.0991C22.4786 23.9153 22.6807 23.8235 22.8538 23.6941C23.0073 23.5793 23.1435 23.4431 23.2583 23.2896C23.3877 23.1165 23.4796 22.9144 23.6633 22.5101L25.6667 18.1025L21.2592 20.106C20.8549 20.2897 20.6528 20.3816 20.4797 20.511C20.3262 20.6257 20.19 20.762 20.0752 20.9155Z" fill="#8E9AF9"/>
<path fill-rule="evenodd" clip-rule="evenodd" d="M12.4167 22.1025C12.4167 16.9939 16.5581 12.8525 21.6667 12.8525C26.7754 12.8525 30.9167 16.9939 30.9167 22.1025C30.9167 27.2112 26.7754 31.3525 21.6667 31.3525C16.5581 31.3525 12.4167 27.2112 12.4167 22.1025ZM21.6667 11.3525C15.7297 11.3525 10.9167 16.1655 10.9167 22.1025C10.9167 28.0396 15.7297 32.8525 21.6667 32.8525C27.6038 32.8525 32.4167 28.0396 32.4167 22.1025C32.4167 16.1655 27.6038 11.3525 21.6667 11.3525ZM26.3495 18.4129C26.4789 18.1283 26.4181 17.7933 26.1971 17.5722C25.976 17.3511 25.641 17.2904 25.3564 17.4198L20.9488 19.4232L20.8891 19.4503C20.5428 19.6075 20.2701 19.7313 20.0307 19.9103C19.8196 20.0681 19.6323 20.2554 19.4745 20.4665C19.2955 20.7059 19.1717 20.9786 19.0145 21.3249L18.9874 21.3846L16.984 25.7922C16.8546 26.0768 16.9154 26.4118 17.1364 26.6329C17.3575 26.8539 17.6925 26.9147 17.9771 26.7853L22.3847 24.7819L22.4444 24.7548C22.7907 24.5976 23.0634 24.4738 23.3028 24.2948C23.5139 24.137 23.7012 23.9497 23.859 23.7386C24.038 23.4992 24.1618 23.2265 24.319 22.8802L24.3461 22.8205L26.3495 18.4129ZM21.5695 20.7887L24.1564 19.6129L22.9805 22.1997C22.7835 22.6333 22.7272 22.7474 22.6576 22.8405C22.5859 22.9365 22.5007 23.0216 22.4048 23.0934C22.3116 23.163 22.1975 23.2193 21.764 23.4163L19.1771 24.5922L20.353 22.0053C20.55 21.5718 20.6063 21.4577 20.6759 21.3645C20.7476 21.2686 20.8328 21.1834 20.9287 21.1117C21.0219 21.0421 21.136 20.9858 21.5695 20.7887Z" fill="#E8EAED"/>
</svg>
