<svg width="64" height="60" viewBox="0 0 64 60" fill="none" xmlns="http://www.w3.org/2000/svg">
<rect x="0.00488281" y="0.449188" width="63.8254" height="58.7419" rx="12" fill="#3541AB"/>
<path d="M31.4769 25.9261C31.849 25.2587 32.035 24.925 32.3131 24.925C32.5912 24.925 32.7772 25.2587 33.1492 25.9261L33.2455 26.0987C33.3512 26.2884 33.404 26.3832 33.4865 26.4458C33.5689 26.5083 33.6715 26.5316 33.8768 26.578L34.0637 26.6203C34.7862 26.7838 35.1474 26.8655 35.2333 27.1418C35.3192 27.4182 35.073 27.7062 34.5805 28.2821L34.4531 28.4311C34.3131 28.5947 34.2431 28.6766 34.2117 28.7778C34.1802 28.879 34.1908 28.9882 34.2119 29.2066L34.2312 29.4054C34.3056 30.1738 34.3429 30.558 34.1179 30.7288C33.8929 30.8996 33.5547 30.7438 32.8783 30.4324L32.7033 30.3518C32.5111 30.2633 32.4149 30.2191 32.3131 30.2191C32.2112 30.2191 32.1151 30.2633 31.9229 30.3518L31.7479 30.4324C31.0715 30.7438 30.7333 30.8996 30.5083 30.7288C30.2833 30.558 30.3205 30.1738 30.395 29.4054L30.4142 29.2066C30.4354 28.9882 30.446 28.879 30.4145 28.7778C30.383 28.6766 30.313 28.5947 30.1731 28.4311L30.0457 28.2821C29.5532 27.7062 29.3069 27.4182 29.3928 27.1418C29.4788 26.8655 29.84 26.7838 30.5624 26.6203L30.7493 26.578C30.9546 26.5316 31.0573 26.5083 31.1397 26.4458C31.2221 26.3832 31.275 26.2884 31.3807 26.0987L31.4769 25.9261Z" stroke="#F8F8F8" stroke-width="1.46855"/>
<path d="M39.1659 27.8621C39.1659 31.647 36.0976 34.7153 32.3127 34.7153C28.5278 34.7153 25.4595 31.647 25.4595 27.8621C25.4595 24.0772 28.5278 21.0089 32.3127 21.0089C36.0976 21.0089 39.1659 24.0772 39.1659 27.8621Z" stroke="#F8F8F8" stroke-width="1.46855"/>
<path d="M32.3128 34.7817L28.6204 38.6048C28.0916 39.1524 27.8272 39.4261 27.6033 39.5208C27.0931 39.7367 26.5271 39.552 26.2587 39.082C26.1409 38.8757 26.1042 38.5037 26.0308 37.7596C25.9894 37.3395 25.9687 37.1294 25.9058 36.9535C25.7649 36.5596 25.469 36.2532 25.0886 36.1074C24.9187 36.0423 24.7158 36.0208 24.3101 35.9779C23.5914 35.9019 23.2321 35.8639 23.0329 35.7419C22.579 35.464 22.4005 34.878 22.609 34.3497C22.7005 34.1179 22.9649 33.8441 23.4937 33.2966L25.9058 30.7992" stroke="#F8F8F8" stroke-width="1.46855"/>
<path d="M32.3127 34.7817L36.0051 38.6048C36.5339 39.1524 36.7983 39.4261 37.0222 39.5208C37.5324 39.7367 38.0984 39.552 38.3668 39.082C38.4846 38.8757 38.5213 38.5037 38.5947 37.7596C38.6361 37.3395 38.6568 37.1294 38.7197 36.9535C38.8606 36.5596 39.1565 36.2532 39.5369 36.1074C39.7068 36.0423 39.9097 36.0208 40.3154 35.9779C41.0341 35.9019 41.3934 35.8639 41.5926 35.7419C42.0465 35.464 42.2249 34.878 42.0165 34.3497C41.925 34.1179 41.6606 33.8441 41.1318 33.2966L38.7197 30.7992" stroke="#F8F8F8" stroke-width="1.46855"/>
</svg>
