<svg width="451" height="164" viewBox="0 0 451 164" fill="none" xmlns="http://www.w3.org/2000/svg">
<g clip-path="url(#clip0_27_982)">
<rect width="451" height="164" fill="white"/>
<path d="M417.909 75V40H426.869V45.74C428.829 41.75 432.259 38.95 437.649 38.95C444.369 38.95 451.439 42.59 451.439 53.58V75H442.479V56.03C442.479 48.05 438.209 46.3 434.499 46.3C429.809 46.3 427.219 49.52 426.869 54.14L426.799 75H417.909Z" fill="black"/>
<path d="M374.996 57.36C374.996 46.3 382.696 38.95 393.896 38.95C405.446 38.95 413.076 46.3 413.076 57.36C413.076 68.7 405.446 76.05 393.896 76.05C382.696 76.05 374.996 68.7 374.996 57.36ZM384.166 57.43C384.166 64.15 388.086 68.56 394.106 68.56C399.986 68.56 403.976 64.15 403.976 57.43C403.976 50.99 399.986 46.37 394.106 46.37C388.086 46.37 384.166 50.99 384.166 57.43Z" fill="black"/>
<path d="M360.689 30.4099C360.689 26.7699 362.999 25.1599 366.359 25.1599C369.649 25.1599 371.959 26.7699 371.959 30.4099C371.959 33.6999 369.649 35.3799 366.359 35.3799C362.999 35.3799 360.689 33.6999 360.689 30.4099ZM361.739 74.9999V39.9999H370.629V74.9999H361.739Z" fill="black"/>
<path d="M347.422 56.03V75H338.462V40H347.422V44.41C350.012 40.77 354.072 39.37 358.972 39.37V48.33C353.582 48.33 347.422 48.68 347.422 56.03Z" fill="black"/>
<path d="M322.902 58.69V40H331.792V75H322.902V70.66C320.732 73.95 317.372 76.05 312.472 76.05C303.232 76.05 297.282 72.27 297.282 61.42V40H306.172V59.32C306.172 66.46 309.532 68.7 314.362 68.7C319.962 68.7 322.902 65.2 322.902 58.69Z" fill="black"/>
<path d="M295.592 67.4399V74.9299C293.562 75.6299 291.112 76.0499 288.802 76.0499C282.712 76.0499 278.022 72.8999 278.022 65.5499V47.4199H272.632V39.9999H278.022V32.2999H286.982V39.9999H295.662V47.4199H286.982V61.5599C286.982 65.2699 287.682 68.2099 291.602 68.2099C292.792 68.2099 294.192 67.9299 295.592 67.4399Z" fill="black"/>
<path d="M236.661 75V40H245.621V45.74C247.581 41.75 251.011 38.95 256.401 38.95C263.121 38.95 270.191 42.59 270.191 53.58V75H261.231V56.03C261.231 48.05 256.961 46.3 253.251 46.3C248.561 46.3 245.971 49.52 245.621 54.14L245.551 75H236.661Z" fill="black"/>
<path d="M223.899 64.29H232.089C230.899 72.2 224.389 76.05 216.129 76.05C204.299 76.05 197.439 68.7 197.439 57.36C197.439 46.3 204.509 38.95 214.939 38.95C225.299 38.95 232.369 46.02 232.649 56.8V59.95H206.749C207.449 65.2 210.389 68.56 216.059 68.56C219.769 68.56 222.779 67.16 223.899 64.29ZM206.819 54.42H224.249C223.549 49.31 220.539 46.37 215.359 46.37C210.319 46.37 207.589 49.59 206.819 54.42Z" fill="black"/>
<path d="M158.67 50.43C158.67 60.58 164.76 67.3 173.93 67.3C180.09 67.3 184.36 64.64 186.88 59.95H195.91C194.23 68.42 185.69 76.05 173.93 76.05C159.72 76.05 149.57 65.9 149.57 50.36C149.57 35.1 159.72 24.95 173.93 24.95C185.55 24.95 194.37 32.72 195.91 40.98H186.74C185.06 37.76 181.42 33.63 173.93 33.63C164.76 33.63 158.67 40.35 158.67 50.43Z" fill="black"/>
<path d="M387.431 120.732V96H390.419V99.204C391.715 96.756 394.127 95.46 397.187 95.46C402.371 95.46 405.863 99.276 405.863 104.928C405.863 110.76 402.371 114.54 397.187 114.54C394.055 114.54 391.679 113.172 390.419 110.616V120.732H387.431ZM390.419 104.928C390.419 109.392 392.939 112.056 396.575 112.056C400.319 112.056 402.839 109.14 402.839 104.928C402.839 100.788 400.319 97.98 396.575 97.98C392.939 97.98 390.419 100.608 390.419 104.928Z" fill="black"/>
<path d="M379.121 105.864H380.165C380.165 110.904 377.717 114.54 373.217 114.54C368.861 114.54 365.801 112.308 365.801 107.268V96H368.753V106.512C368.753 110.652 371.093 112.056 373.757 112.056C377.033 112.056 379.121 109.86 379.121 105.864ZM382.073 96V114H379.121V96H382.073Z" fill="black"/>
<path d="M342.331 104.928C342.331 99.276 346.255 95.46 351.907 95.46C357.703 95.46 361.591 99.276 361.591 104.928C361.591 110.76 357.703 114.54 351.907 114.54C346.255 114.54 342.331 110.76 342.331 104.928ZM345.391 104.928C345.391 109.176 348.019 112.02 351.943 112.02C355.903 112.02 358.531 109.176 358.531 104.928C358.531 100.86 355.903 97.944 351.943 97.944C348.019 97.944 345.391 100.86 345.391 104.928Z" fill="black"/>
<path d="M335.022 104.064H333.978C333.978 97.9801 336.894 95.8201 341.07 95.8201V98.8081C337.722 98.8081 335.022 100.032 335.022 104.064ZM332.034 114V96.0001H335.022V114H332.034Z" fill="black"/>
<path d="M306.18 101.328C306.18 107.52 309.744 111.66 315.468 111.66C321.156 111.66 324.216 108.312 324.216 103.596V102.48H315.072V99.96H327.24V103.884C327.24 109.284 323.748 114.54 315.468 114.54C308.052 114.54 303.12 109.32 303.12 101.328C303.12 93.444 308.628 88.26 315.972 88.26C321.264 88.26 324.864 91.176 326.196 94.92H323.028C321.768 92.796 319.536 91.104 315.972 91.104C310.608 91.104 306.18 95.028 306.18 101.328Z" fill="black"/>
<path d="M288.529 96L279.277 120.948H276.109L278.665 114L271.645 96H274.813L280.249 110.184L285.361 96H288.529Z" fill="black"/>
<path d="M270.282 111.372V113.928C269.598 114.324 268.446 114.54 267.402 114.54C264.378 114.54 262.902 112.38 262.902 109.752V92.076H265.89V108.42C265.89 110.004 266.142 111.912 268.194 111.912C268.878 111.912 269.742 111.624 270.282 111.372ZM260.31 98.484V96.0001H270.39V98.484H260.31Z" fill="black"/>
<path d="M253.737 114V96H256.689V114H253.737ZM253.269 90.492C253.269 89.16 254.097 88.548 255.249 88.548C256.437 88.548 257.265 89.16 257.265 90.492C257.265 91.752 256.437 92.292 255.249 92.292C254.097 92.292 253.269 91.752 253.269 90.492Z" fill="black"/>
<path d="M244.374 104.064H243.33C243.33 97.9801 246.246 95.8201 250.422 95.8201V98.8081C247.074 98.8081 244.374 100.032 244.374 104.064ZM241.386 114V96.0001H244.374V114H241.386Z" fill="black"/>
<path d="M233.076 105.864H234.12C234.12 110.904 231.672 114.54 227.172 114.54C222.816 114.54 219.756 112.308 219.756 107.268V96H222.708V106.512C222.708 110.652 225.048 112.056 227.712 112.056C230.988 112.056 233.076 109.86 233.076 105.864ZM236.028 96V114H233.076V96H236.028Z" fill="black"/>
<path d="M208.207 97.944C204.427 97.944 202.159 100.824 202.159 104.928C202.159 109.176 204.679 112.02 208.279 112.02C210.763 112.02 212.383 110.94 213.391 109.068H216.235C215.083 112.956 211.915 114.54 208.207 114.54C202.663 114.54 199.099 110.976 199.099 104.928C199.099 99.276 202.699 95.46 208.171 95.46C212.383 95.46 215.227 97.728 216.199 100.896H213.319C212.419 99.06 210.655 97.944 208.207 97.944Z" fill="black"/>
<path d="M181.232 104.928C181.232 109.176 183.572 112.02 187.568 112.02C189.872 112.02 191.852 110.868 192.716 109.104H195.488C194.624 112.56 191.348 114.54 187.496 114.54C181.736 114.54 178.172 110.76 178.172 104.928C178.172 99.276 181.736 95.46 186.956 95.46C192.284 95.46 195.884 99.276 195.884 104.928H193.076C193.184 100.752 190.88 97.944 187.1 97.944C183.392 97.944 181.232 100.824 181.232 104.928ZM179.504 105.9V103.92H194.264L195.884 104.748V105.9H179.504Z" fill="black"/>
<path d="M172 106.476C172 99.42 156.088 104.676 156.088 95.316C156.088 90.276 160.336 88.26 165.016 88.26C171.748 88.26 173.836 92.112 173.656 94.668H170.776C170.884 93.228 169.408 91.104 165.016 91.104C161.092 91.104 159.148 93.084 159.148 95.28C159.148 101.832 175.096 96.432 175.096 106.692C175.096 111.696 170.92 114.54 165.124 114.54C160.516 114.54 155.872 112.2 155.872 106.98H158.86C158.752 109.932 161.308 111.66 165.196 111.66C168.688 111.66 172 110.076 172 106.476Z" fill="black"/>
<path d="M0 26.7852L20 19V135C7.30092 123.855 0 108.94 0 93.4106V26.7852Z" fill="#FF481D"/>
<path d="M65.8225 0L30 13.9605V142.147L65.8225 164L103.112 141.142C103.422 140.958 103.711 140.774 104 140.568V14.883L65.8225 0ZM88.5263 61.8076H77.6394V32.0211L65.7399 28.044L54.0057 32.062V126.116L65.6984 133.352L77.6185 125.522V93.2544H88.5057V131.302L65.8843 146.165L43.0978 132.102V24.354L65.6778 16.6255L88.5057 24.2515V61.8076H88.5263Z" fill="#FF481D"/>
<path d="M133 26.8119V92.9383C133 107.396 126.095 121.284 114 132V20L133 26.8119Z" fill="#FF481D"/>
</g>
<defs>
<clipPath id="clip0_27_982">
<rect width="451" height="164" fill="white"/>
</clipPath>
</defs>
</svg>
