<svg width="64" height="60" viewBox="0 0 64 60" fill="none" xmlns="http://www.w3.org/2000/svg">
<rect y="0.449188" width="63.8254" height="58.7419" rx="12" fill="#3541AB"/>
<path d="M41.0948 30.9805L40.3713 30.8554L41.0948 30.9805ZM40.4041 34.9747L39.6806 34.8496L40.4041 34.9747ZM27.3518 39.0985L26.6202 39.1618L27.3518 39.0985ZM26.5567 29.9028L27.2882 29.8395L26.5567 29.9028ZM34.261 24.1627L34.9856 24.2815V24.2815L34.261 24.1627ZM33.6122 28.1225L34.3368 28.2412L33.6122 28.1225ZM27.1172 28.5254L26.6379 27.9691H26.6379L27.1172 28.5254ZM28.5258 27.3116L29.0051 27.8678L29.0051 27.8678L28.5258 27.3116ZM30.857 23.7342L30.1462 23.5499V23.5499L30.857 23.7342ZM31.3227 21.9388L32.0335 22.1232V22.1232L31.3227 21.9388ZM32.9615 21.0719L32.7369 21.771L32.7369 21.771L32.9615 21.0719ZM33.1034 21.1175L33.328 20.4184L33.328 20.4184L33.1034 21.1175ZM30.2147 25.3779L30.8623 25.7239L30.2147 25.3779ZM34.1726 22.2302L33.4619 22.4146V22.4146L34.1726 22.2302ZM31.9889 21.1385L31.6702 20.477V20.477L31.9889 21.1385ZM24.4478 40.0713L23.7163 40.1346H23.7163L24.4478 40.0713ZM23.4966 29.0704L24.2281 29.0072C24.1943 28.6154 23.8578 28.3199 23.4649 28.3368C23.0721 28.3538 22.7623 28.6772 22.7623 29.0704H23.4966ZM40.3713 30.8554L39.6806 34.8496L41.1276 35.0998L41.8184 31.1056L40.3713 30.8554ZM33.5267 39.8552H28.9756V41.3238H33.5267V39.8552ZM28.0833 39.0353L27.2882 29.8395L25.8251 29.9661L26.6202 39.1618L28.0833 39.0353ZM39.6806 34.8496C39.1844 37.7187 36.5973 39.8552 33.5267 39.8552V41.3238C37.2728 41.3238 40.5032 38.7108 41.1276 35.0998L39.6806 34.8496ZM33.5364 24.044L32.8876 28.0038L34.3368 28.2412L34.9856 24.2815L33.5364 24.044ZM27.5965 29.0816L29.0051 27.8678L28.0464 26.7553L26.6379 27.9691L27.5965 29.0816ZM31.5677 23.9186L32.0335 22.1232L30.612 21.7545L30.1462 23.5499L31.5677 23.9186ZM32.7369 21.771L32.8788 21.8166L33.328 20.4184L33.186 20.3728L32.7369 21.771ZM30.8623 25.7239C31.1677 25.1521 31.4049 24.5465 31.5677 23.9186L30.1462 23.5499C30.0128 24.0645 29.8182 24.5617 29.567 25.032L30.8623 25.7239ZM32.8788 21.8166C33.1788 21.9129 33.3918 22.1446 33.4619 22.4146L34.8834 22.0459C34.6822 21.2705 34.0887 20.6628 33.328 20.4184L32.8788 21.8166ZM32.0335 22.1232C32.0678 21.991 32.1632 21.8696 32.3077 21.8L31.6702 20.477C31.1493 20.728 30.7581 21.1912 30.612 21.7545L32.0335 22.1232ZM32.3077 21.8C32.4396 21.7364 32.5949 21.7253 32.7369 21.771L33.1861 20.3728C32.687 20.2125 32.1426 20.2493 31.6702 20.477L32.3077 21.8ZM34.4164 29.8047H39.4889V28.3361H34.4164V29.8047ZM25.1794 40.0081L24.2281 29.0072L22.765 29.1337L23.7163 40.1346L25.1794 40.0081ZM24.2309 40.1125V29.0704H22.7623V40.1125H24.2309ZM23.7163 40.1346C23.7033 39.9852 23.8211 39.8552 23.9731 39.8552V41.3238C24.6838 41.3238 25.2405 40.7147 25.1794 40.0081L23.7163 40.1346ZM34.9856 24.2815C35.1075 23.5373 35.0727 22.7758 34.8834 22.0459L33.4619 22.4146C33.5999 22.9466 33.6252 23.5016 33.5364 24.044L34.9856 24.2815ZM28.9756 39.8552C28.5116 39.8552 28.1235 39.4998 28.0833 39.0353L26.6202 39.1618C26.7259 40.3842 27.7482 41.3238 28.9756 41.3238V39.8552ZM29.0051 27.8678C29.6707 27.2943 30.3881 26.6116 30.8623 25.7239L29.567 25.032C29.2279 25.6668 28.6879 26.2026 28.0464 26.7553L29.0051 27.8678ZM41.8184 31.1056C42.0684 29.6601 40.9567 28.3361 39.4889 28.3361V29.8047C40.0436 29.8047 40.4664 30.3057 40.3713 30.8554L41.8184 31.1056ZM23.9731 39.8552C24.1162 39.8552 24.2309 39.9712 24.2309 40.1125H22.7623C22.7623 40.7807 23.3036 41.3238 23.9731 41.3238V39.8552ZM32.8876 28.0038C32.7332 28.9464 33.4598 29.8047 34.4164 29.8047V28.3361C34.3676 28.3361 34.3285 28.2919 34.3368 28.2412L32.8876 28.0038ZM27.2882 29.8395C27.2633 29.5517 27.3782 29.2697 27.5965 29.0816L26.6379 27.9691C26.0619 28.4655 25.7596 29.2086 25.8251 29.9661L27.2882 29.8395Z" fill="white"/>
</svg>
