<svg width="64" height="59" viewBox="0 0 64 59" fill="none" xmlns="http://www.w3.org/2000/svg">
<rect x="0.00976562" width="63.8254" height="58.7419" rx="12" fill="#3541AB"/>
<g clip-path="url(#clip0_348_446)">
<path d="M32.1113 43.1236C31.9793 43.1236 31.8662 43.0906 31.7719 43.0246C31.6777 42.9587 31.6117 42.8691 31.574 42.756C31.5363 42.6429 31.5316 42.5298 31.5598 42.4166C31.5881 42.3035 31.64 42.2093 31.7154 42.1339C31.8096 42.0584 31.9181 42.0113 32.0406 41.9925C32.1631 41.9736 32.281 42.0019 32.3941 42.0773C32.4883 42.1339 32.559 42.214 32.6062 42.3177C32.6533 42.4214 32.6675 42.5298 32.6486 42.6429C32.6297 42.7748 32.5685 42.888 32.4648 42.9822C32.3611 43.0765 32.2433 43.1236 32.1113 43.1236ZM32.1113 37.2133C32.0547 37.2133 32.0029 37.2038 31.9558 37.185C31.9086 37.1661 31.8662 37.1473 31.8285 37.1284C31.6211 37.0153 31.4043 36.8881 31.1781 36.7467C30.9518 36.6053 30.7162 36.4592 30.4711 36.3083C30.094 36.0821 29.7924 35.7663 29.5662 35.361C29.3399 34.9556 29.2174 34.5927 29.1985 34.2722C29.1985 34.2722 29.1985 34.2675 29.1985 34.2581C29.1985 34.2487 29.1985 34.2439 29.1985 34.2439C29.1985 34.112 29.1985 33.7349 29.1985 33.1128C29.1985 32.4906 29.1985 31.7742 29.1985 30.9636C29.1985 30.8316 29.2315 30.7185 29.2975 30.6242C29.3635 30.5299 29.453 30.464 29.5662 30.4262C29.9432 30.2943 30.3156 30.1435 30.6832 29.9738C31.0508 29.8041 31.4232 29.6156 31.8002 29.4082C31.8756 29.3516 31.9652 29.3234 32.0689 29.3234C32.1726 29.3234 32.2715 29.3516 32.3658 29.4082C32.7429 29.6156 33.1199 29.8088 33.497 29.9879C33.874 30.167 34.2605 30.3226 34.6564 30.4545C34.7695 30.4922 34.8591 30.5582 34.9251 30.6525C34.9911 30.7467 35.0241 30.8599 35.0241 30.9918C35.0241 31.8025 35.0241 32.5142 35.0241 33.1269C35.0241 33.7396 35.0241 34.112 35.0241 34.2439C35.0241 34.2439 35.0241 34.2487 35.0241 34.2581C35.0241 34.2675 35.0241 34.2722 35.0241 34.2722C35.0052 34.5927 34.8827 34.9556 34.6564 35.361C34.4302 35.7663 34.1285 36.0821 33.7515 36.3083C33.5064 36.4592 33.2707 36.6053 33.0445 36.7467C32.8183 36.8881 32.6015 37.0153 32.3941 37.1284C32.3564 37.1473 32.314 37.1661 32.2668 37.185C32.2197 37.2038 32.1679 37.2133 32.1113 37.2133ZM30.3297 34.2439C30.3297 34.3759 30.3957 34.5597 30.5277 34.7954C30.6596 35.0311 30.8293 35.2149 31.0367 35.3468C31.2441 35.46 31.4326 35.5684 31.6023 35.672C31.7719 35.7757 31.9416 35.8747 32.1113 35.969C32.281 35.8747 32.4506 35.7757 32.6203 35.672C32.79 35.5684 32.9785 35.46 33.1859 35.3468C33.3933 35.2149 33.563 35.0311 33.6949 34.7954C33.8269 34.5597 33.8929 34.3759 33.8929 34.2439C33.8929 34.0931 33.8929 33.7538 33.8929 33.2259C33.8929 32.698 33.8929 32.0853 33.8929 31.3877C33.5912 31.2746 33.2896 31.1474 32.988 31.006C32.6863 30.8646 32.3847 30.709 32.083 30.5394C31.7814 30.6902 31.4844 30.8363 31.1922 30.9777C30.9 31.1191 30.6125 31.2463 30.3297 31.3595C30.3297 32.0759 30.3297 32.698 30.3297 33.2259C30.3297 33.7538 30.3297 34.0931 30.3297 34.2439ZM44.2431 39.0231H43.9886V37.4395C43.9886 36.987 43.8283 36.6005 43.5078 36.2801C43.1873 35.9596 42.8103 35.7993 42.3767 35.7993H41.2455V29.0123C41.3775 29.1254 41.5189 29.2102 41.6697 29.2668C41.8205 29.3234 41.9807 29.3516 42.1504 29.3516C42.2635 29.3516 42.3672 29.3422 42.4615 29.3234C42.5558 29.3045 42.6594 29.2668 42.7726 29.2102C43.0177 29.0971 43.2156 28.9227 43.3664 28.6871C43.5173 28.4514 43.5927 28.1922 43.5927 27.9094V26.2975C43.5927 26.0901 43.5502 25.8874 43.4654 25.6895C43.3806 25.4915 43.2533 25.3266 43.0836 25.1946L41.1324 23.5261C41.1324 23.5261 41.1324 23.5214 41.1324 23.512C41.1324 23.5025 41.1324 23.4978 41.1324 23.4978V18.6055C41.1324 18.4547 41.0758 18.3227 40.9627 18.2096C40.8496 18.0965 40.7176 18.0399 40.5668 18.0399H37.3712C37.2016 18.0399 37.0649 18.0965 36.9612 18.2096C36.8575 18.3227 36.8056 18.4547 36.8056 18.6055V19.8498L32.4789 16.1735C32.3658 16.0792 32.2433 16.0321 32.1113 16.0321C31.9793 16.0321 31.8568 16.0792 31.7437 16.1735L21.1389 25.1946C20.9693 25.3266 20.842 25.4915 20.7572 25.6895C20.6723 25.8874 20.6299 26.0901 20.6299 26.2975V27.9094C20.6299 28.1922 20.7053 28.4514 20.8562 28.6871C21.007 28.9227 21.2049 29.0971 21.45 29.2102C21.714 29.3422 21.9826 29.3893 22.256 29.3516C22.5293 29.3139 22.7697 29.2008 22.9771 29.0123V35.7993H21.8459C21.4123 35.7993 21.0353 35.9596 20.7148 36.2801C20.3943 36.6005 20.234 36.987 20.234 37.4395V39.0231H19.9795C19.3385 39.0231 18.7871 39.2541 18.3252 39.716C17.8633 40.1779 17.6323 40.7293 17.6323 41.3703V42.558C17.6323 42.7089 17.6889 42.8408 17.802 42.954C17.9151 43.0671 18.0471 43.1236 18.1979 43.1236H29.5662C29.717 43.1236 29.849 43.0671 29.9621 42.954C30.0752 42.8408 30.1317 42.7089 30.1317 42.558C30.1317 42.4072 30.0752 42.2752 29.9621 42.1621C29.849 42.049 29.717 41.9925 29.5662 41.9925H18.7635V41.3703C18.7635 41.0498 18.8813 40.767 19.117 40.5219C19.3526 40.2769 19.6402 40.1543 19.9795 40.1543H44.2431C44.5824 40.1543 44.8699 40.2769 45.1056 40.5219C45.3413 40.767 45.4591 41.0498 45.4591 41.3703V41.9925H34.6564C34.5056 41.9925 34.3736 42.049 34.2605 42.1621C34.1474 42.2752 34.0908 42.4072 34.0908 42.558C34.0908 42.7089 34.1474 42.8408 34.2605 42.954C34.3736 43.0671 34.5056 43.1236 34.6564 43.1236H46.0247C46.1755 43.1236 46.3075 43.0671 46.4206 42.954C46.5337 42.8408 46.5903 42.7089 46.5903 42.558V41.3703C46.5903 40.7293 46.3593 40.1779 45.8974 39.716C45.4355 39.2541 44.8841 39.0231 44.2431 39.0231ZM37.9368 19.1711H40.0012V22.5646L37.9368 20.8113V19.1711ZM21.9308 28.1922C21.9119 28.1733 21.8789 28.1451 21.8318 28.1074C21.7847 28.0696 21.7611 28.0037 21.7611 27.9094V26.2975C21.7611 26.2409 21.7705 26.1938 21.7894 26.1561C21.8082 26.1184 21.8365 26.0901 21.8742 26.0712L32.1113 17.333L42.3484 26.0712C42.3861 26.0901 42.4144 26.1184 42.4332 26.1561C42.4521 26.1938 42.4615 26.2409 42.4615 26.2975V27.9094C42.4615 28.0037 42.4379 28.0696 42.3908 28.1074C42.3437 28.1451 42.3107 28.1733 42.2918 28.1922C42.2541 28.211 42.207 28.2205 42.1504 28.2205C42.0939 28.2205 42.0373 28.1922 41.9807 28.1356L32.4789 20.076C32.4224 20.0195 32.3611 19.9818 32.2951 19.9629C32.2291 19.9441 32.1679 19.9347 32.1113 19.9347C32.0547 19.9347 31.9935 19.9441 31.9275 19.9629C31.8615 19.9818 31.8002 20.0195 31.7437 20.076L22.2418 28.1356C22.1853 28.1922 22.1287 28.2205 22.0722 28.2205C22.0156 28.2205 21.9685 28.211 21.9308 28.1922ZM21.3652 37.4395C21.3652 37.3075 21.4123 37.1897 21.5066 37.086C21.6008 36.9823 21.714 36.9305 21.8459 36.9305H22.9771V39.0231H21.3652V37.4395ZM24.1083 28.0508L32.1113 21.2355L40.1143 28.0508V39.0231H34.0626C34.2134 38.9289 34.3736 38.8346 34.5433 38.7403C34.713 38.6461 34.8827 38.5424 35.0523 38.4293C35.7499 37.9957 36.3296 37.3971 36.7915 36.6335C37.2534 35.87 37.4938 35.0923 37.5126 34.3005C37.5126 34.1874 37.5126 33.5841 37.5126 32.4906C37.5126 31.3972 37.5126 30.2377 37.5126 29.0123C37.5126 28.8615 37.4655 28.7342 37.3712 28.6305C37.277 28.5268 37.1639 28.4656 37.0319 28.4467C36.2401 28.3524 35.4624 28.1403 34.6988 27.8104C33.9353 27.4805 33.1765 27.0327 32.4224 26.4672C32.3281 26.3917 32.2197 26.354 32.0972 26.354C31.9746 26.354 31.8568 26.3917 31.7437 26.4672C30.9896 27.0139 30.2307 27.4522 29.4672 27.7821C28.7036 28.1121 27.9448 28.3336 27.1907 28.4467C27.0587 28.4656 26.9456 28.5268 26.8514 28.6305C26.7571 28.7342 26.71 28.852 26.71 28.984C26.71 30.2283 26.71 31.3972 26.71 32.4906C26.71 33.5841 26.71 34.1874 26.71 34.3005C26.7288 35.0923 26.9692 35.87 27.4311 36.6335C27.893 37.3971 28.4727 37.9957 29.1703 38.4293C29.3399 38.5424 29.5096 38.6461 29.6793 38.7403C29.849 38.8346 30.0092 38.9289 30.16 39.0231H24.1083V28.0508ZM32.1113 38.8817C31.8285 38.7121 31.4892 38.5094 31.0932 38.2737C30.6973 38.0381 30.2543 37.7694 29.7641 37.4678C29.2174 37.1284 28.7649 36.6618 28.4067 36.068C28.0485 35.4741 27.86 34.8755 27.8411 34.2722C27.8411 34.1591 27.8411 33.6218 27.8411 32.6603C27.8411 31.6988 27.8411 30.6336 27.8411 29.4648C28.5387 29.3328 29.2457 29.1113 29.9621 28.8002C30.6785 28.4891 31.3855 28.0885 32.083 27.5983C32.7806 28.1074 33.4875 28.5174 34.204 28.8285C34.9204 29.1395 35.6462 29.3611 36.3815 29.493C36.3815 30.6431 36.3815 31.6988 36.3815 32.6603C36.3815 33.6218 36.3815 34.1591 36.3815 34.2722C36.3626 34.8755 36.1741 35.4741 35.8159 36.068C35.4577 36.6618 35.0052 37.1284 34.4585 37.4678C33.9683 37.7694 33.5253 38.0381 33.1293 38.2737C32.7334 38.5094 32.3941 38.7121 32.1113 38.8817ZM41.2455 39.0231V36.9305H42.3767C42.5086 36.9305 42.6217 36.9823 42.716 37.086C42.8103 37.1897 42.8574 37.3075 42.8574 37.4395V39.0231H41.2455Z" fill="white"/>
</g>
<defs>
<clipPath id="clip0_348_446">
<rect width="28.9579" height="28.9579" fill="white" transform="matrix(1 0 0 -1 17.6323 44.0565)"/>
</clipPath>
</defs>
</svg>
