<svg width="339" height="122" viewBox="0 0 339 122" fill="none" xmlns="http://www.w3.org/2000/svg">
<g filter="url(#filter0_b_522_3615)">
<rect width="339" height="109.011" fill="#272D63" fill-opacity="0.9"/>
<rect x="0.5" y="0.5" width="338" height="108.011" stroke="url(#paint0_linear_522_3615)"/>
<g style="mix-blend-mode:color-dodge">
<path d="M52.8716 24C52.8716 24 48.3308 28.7126 37.6865 30.0845C35.8348 30.3235 34.2185 30.4215 32.8125 30.4215C26.4832 30.4215 24.4232 28.4391 24.4232 28.4391C24.4232 28.4391 18.2723 64.9485 52.8712 85.0113C87.4675 64.9481 81.3166 28.4391 81.3166 28.4391C81.3166 28.4391 79.2575 30.4215 72.9273 30.4215C71.5218 30.4215 69.9046 30.3235 68.0533 30.0845C57.4115 28.7126 52.8716 24 52.8716 24Z" fill="url(#paint1_radial_522_3615)"/>
</g>
<g style="mix-blend-mode:color-dodge">
<path d="M52.8713 31.7145C55.9604 33.4965 60.6808 35.4788 67.2484 36.3254C69.2457 36.5831 71.1567 36.7138 72.9278 36.7138C73.8109 36.7138 74.6401 36.6819 75.4182 36.6238C75.3231 39.8059 74.9256 43.8229 73.835 48.2006C70.7654 60.5235 63.7206 70.4002 52.8713 77.6084C42.0211 70.4002 34.9759 60.5235 31.9058 48.2006C30.8149 43.8217 30.4173 39.8046 30.3223 36.6238C31.1004 36.6819 31.9295 36.7138 32.8126 36.7138C34.5837 36.7138 36.4947 36.5831 38.4908 36.3254C45.06 35.4788 49.7817 33.496 52.8713 31.7145Z" fill="url(#paint2_radial_522_3615)"/>
</g>
<g style="mix-blend-mode:color-dodge">
<path d="M52.8715 77.9865L52.6976 77.8708C41.7848 70.621 34.6869 60.6639 31.6006 48.277C30.6619 44.5098 30.1262 40.5923 30.0079 36.6338L29.9976 36.2844L30.3457 36.3105C32.7763 36.4923 35.511 36.3931 38.4508 36.0138C45.1947 35.1444 49.9297 33.0475 52.7138 31.4419L52.8711 31.3515L53.0283 31.4419C55.8116 33.0475 60.5449 35.144 67.2884 36.0134C70.2282 36.3931 72.9613 36.4927 75.3947 36.3105L75.7429 36.2844L75.7325 36.6338C75.6143 40.5932 75.0785 44.5106 74.1402 48.2774C71.0544 60.6647 63.9569 70.6214 53.0454 77.8712L52.8715 77.9865ZM30.6483 36.9621C30.7852 40.7575 31.3106 44.5114 32.2111 48.1247C35.2417 60.2891 42.1919 70.0803 52.8715 77.2304C63.5503 70.0807 70.4992 60.2891 73.5298 48.1247C74.4299 44.5119 74.9553 40.7579 75.0922 36.9616C72.7002 37.1131 70.0514 37.004 67.2079 36.6371C60.486 35.7702 55.7237 33.6982 52.8711 32.0764C50.0176 33.6982 45.2532 35.7706 38.5313 36.6371C35.6882 37.0044 33.0381 37.1127 30.6483 36.9621Z" fill="url(#paint3_radial_522_3615)"/>
</g>
<g style="mix-blend-mode:color-dodge">
<path d="M52.8716 24.8569C54.2771 26.0741 58.9826 29.5496 67.9732 30.7086C69.7311 30.9356 71.3981 31.0506 72.9277 31.0506C77.2087 31.0506 79.6368 30.155 80.8232 29.5168C81.1174 32.1573 81.6632 39.8748 79.4438 49.1045C77.8395 55.7766 75.1247 61.9246 71.374 67.3779C66.7499 74.1018 60.5259 79.7879 52.8712 84.2826C45.2159 79.7879 38.9912 74.1018 34.3666 67.3779C30.616 61.9246 27.9007 55.7761 26.2964 49.1045C24.0771 39.8748 24.6228 32.1573 24.917 29.5168C26.1039 30.155 28.5319 31.0506 32.8125 31.0506C34.3421 31.0506 36.0091 30.9356 37.7666 30.7086C46.7593 29.5496 51.4656 26.0741 52.8716 24.8569ZM52.8716 24C52.8716 24 48.3308 28.7126 37.6865 30.0845C35.8348 30.3235 34.2185 30.4215 32.8125 30.4215C26.4832 30.4215 24.4232 28.4391 24.4232 28.4391C24.4232 28.4391 18.2723 64.9485 52.8712 85.0113C87.4675 64.9481 81.3166 28.4391 81.3166 28.4391C81.3166 28.4391 79.2575 30.4215 72.9273 30.4215C71.5218 30.4215 69.9046 30.3235 68.0533 30.0845C57.4115 28.7126 52.8716 24 52.8716 24Z" fill="url(#paint4_radial_522_3615)"/>
</g>
<path d="M62.7498 43.5057L50.93 55.7637L46.2508 50.9108L43 54.2817L50.93 62.5057L66 46.877L62.7498 43.5057Z" fill="url(#paint5_linear_522_3615)"/>
<g opacity="0.6" filter="url(#filter1_f_522_3615)">
<ellipse cx="53" cy="74.5" rx="18" ry="17.5" fill="#75E3EA"/>
</g>
<path d="M103.433 53.5057L98.5797 34.6057H101.31L104.856 49.9357H104.95L109.056 34.6057H111.623L115.94 49.9357H116.033L119.556 34.6057H122.286L117.433 53.5057H114.68L110.363 38.0123H110.27L106.186 53.5057H103.433ZM128.359 53.7857C127.099 53.7857 125.972 53.4901 124.976 52.899C123.98 52.2923 123.195 51.4446 122.619 50.3557C122.059 49.2512 121.779 47.9523 121.779 46.459C121.779 44.9812 122.059 43.7057 122.619 42.6323C123.179 41.5435 123.942 40.7035 124.906 40.1123C125.87 39.5212 126.975 39.2257 128.219 39.2257C129.386 39.2257 130.42 39.4901 131.323 40.019C132.24 40.5479 132.964 41.3101 133.493 42.3057C134.022 43.3012 134.286 44.4757 134.286 45.829V46.949H124.206C124.299 48.3646 124.719 49.4923 125.466 50.3323C126.213 51.1723 127.169 51.5923 128.336 51.5923C129.176 51.5923 129.892 51.3823 130.483 50.9623C131.074 50.5423 131.47 49.9668 131.673 49.2357H134.239C134.053 50.1846 133.679 51.0012 133.119 51.6857C132.559 52.3546 131.875 52.8757 131.066 53.249C130.257 53.6068 129.355 53.7857 128.359 53.7857ZM124.323 45.0357H131.836C131.727 43.8846 131.346 42.9901 130.693 42.3523C130.039 41.7146 129.207 41.3957 128.196 41.3957C127.2 41.3957 126.36 41.7223 125.676 42.3757C124.992 43.0135 124.54 43.9001 124.323 45.0357ZM149.333 53.7857C148.073 53.7857 146.945 53.4901 145.95 52.899C144.954 52.2923 144.169 51.4446 143.593 50.3557C143.033 49.2512 142.753 47.9523 142.753 46.459C142.753 44.9812 143.033 43.7057 143.593 42.6323C144.153 41.5435 144.915 40.7035 145.88 40.1123C146.844 39.5212 147.949 39.2257 149.193 39.2257C150.36 39.2257 151.394 39.4901 152.296 40.019C153.214 40.5479 153.937 41.3101 154.466 42.3057C154.995 43.3012 155.26 44.4757 155.26 45.829V46.949H145.18C145.273 48.3646 145.693 49.4923 146.44 50.3323C147.186 51.1723 148.143 51.5923 149.31 51.5923C150.15 51.5923 150.865 51.3823 151.456 50.9623C152.047 50.5423 152.444 49.9668 152.646 49.2357H155.213C155.026 50.1846 154.653 51.0012 154.093 51.6857C153.533 52.3546 152.849 52.8757 152.04 53.249C151.231 53.6068 150.329 53.7857 149.333 53.7857ZM145.296 45.0357H152.81C152.701 43.8846 152.32 42.9901 151.666 42.3523C151.013 41.7146 150.181 41.3957 149.17 41.3957C148.174 41.3957 147.334 41.7223 146.65 42.3757C145.965 43.0135 145.514 43.9001 145.296 45.0357ZM158.162 53.5057V39.5057H160.659V41.769H160.752C161.157 40.9601 161.724 40.3379 162.455 39.9023C163.187 39.4668 164.05 39.249 165.045 39.249C166.057 39.249 166.951 39.4979 167.729 39.9957C168.507 40.4779 169.113 41.1468 169.549 42.0023C169.984 42.8579 170.202 43.8379 170.202 44.9423V53.5057H167.682V45.3857C167.682 44.1879 167.371 43.2468 166.749 42.5623C166.142 41.8779 165.287 41.5357 164.182 41.5357C163.078 41.5357 162.214 41.8779 161.592 42.5623C160.985 43.2468 160.682 44.1879 160.682 45.3857V53.5057H158.162ZM178.596 53.7857C176.916 53.7857 175.547 53.3735 174.49 52.549C173.447 51.709 172.88 50.589 172.786 49.189H175.26C175.369 49.9979 175.719 50.6201 176.31 51.0557C176.901 51.4757 177.694 51.6857 178.69 51.6857C179.607 51.6857 180.307 51.5068 180.79 51.149C181.272 50.7912 181.513 50.2857 181.513 49.6323C181.513 48.6057 180.805 47.9446 179.39 47.649L177.08 47.1357C174.56 46.6068 173.3 45.3623 173.3 43.4023C173.3 42.1579 173.766 41.1546 174.7 40.3923C175.633 39.6146 176.854 39.2257 178.363 39.2257C179.856 39.2257 181.085 39.6223 182.05 40.4157C183.03 41.1935 183.582 42.2512 183.706 43.589H181.28C181.124 42.8579 180.782 42.2979 180.253 41.909C179.74 41.5046 179.071 41.3023 178.246 41.3023C177.453 41.3023 176.823 41.4735 176.356 41.8157C175.89 42.1579 175.656 42.6246 175.656 43.2157C175.656 43.6823 175.82 44.0635 176.146 44.359C176.473 44.639 176.994 44.8568 177.71 45.0123L180.043 45.5023C181.319 45.7823 182.267 46.249 182.89 46.9023C183.527 47.5401 183.846 48.3801 183.846 49.4223C183.846 50.7601 183.38 51.8257 182.446 52.619C181.513 53.3968 180.23 53.7857 178.596 53.7857ZM191.508 53.7623C190.497 53.7623 189.602 53.529 188.825 53.0623C188.062 52.5957 187.464 51.9423 187.028 51.1023C186.608 50.2623 186.398 49.2979 186.398 48.209V39.5057H188.918V47.649C188.918 48.8468 189.214 49.7879 189.805 50.4723C190.396 51.1412 191.22 51.4757 192.278 51.4757C193.382 51.4757 194.261 51.1257 194.915 50.4257C195.584 49.7101 195.918 48.7768 195.918 47.6257V39.5057H198.438V53.5057H195.941V51.079H195.848C195.459 51.9501 194.891 52.619 194.145 53.0857C193.398 53.5368 192.519 53.7623 191.508 53.7623ZM202.376 53.5057V39.5057H204.779V42.3057H204.872C205.183 41.4346 205.689 40.7346 206.389 40.2057C207.104 39.6612 207.976 39.389 209.002 39.389H210.029V41.629H208.862C207.571 41.629 206.583 42.0412 205.899 42.8657C205.23 43.6901 204.896 44.8023 204.896 46.2023V53.5057H202.376ZM217.463 53.7857C216.203 53.7857 215.075 53.4901 214.079 52.899C213.084 52.2923 212.298 51.4446 211.723 50.3557C211.163 49.2512 210.883 47.9523 210.883 46.459C210.883 44.9812 211.163 43.7057 211.723 42.6323C212.283 41.5435 213.045 40.7035 214.009 40.1123C214.974 39.5212 216.078 39.2257 217.323 39.2257C218.489 39.2257 219.524 39.4901 220.426 40.019C221.344 40.5479 222.067 41.3101 222.596 42.3057C223.125 43.3012 223.389 44.4757 223.389 45.829V46.949H213.309C213.403 48.3646 213.823 49.4923 214.569 50.3323C215.316 51.1723 216.273 51.5923 217.439 51.5923C218.279 51.5923 218.995 51.3823 219.586 50.9623C220.177 50.5423 220.574 49.9668 220.776 49.2357H223.343C223.156 50.1846 222.783 51.0012 222.223 51.6857C221.663 52.3546 220.978 52.8757 220.169 53.249C219.36 53.6068 218.458 53.7857 217.463 53.7857ZM213.426 45.0357H220.939C220.83 43.8846 220.449 42.9901 219.796 42.3523C219.143 41.7146 218.31 41.3957 217.299 41.3957C216.304 41.3957 215.464 41.7223 214.779 42.3757C214.095 43.0135 213.644 43.9001 213.426 45.0357ZM99.2797 83.1057V81.099H102.453L103.736 77.5757L97.8797 63.5057H100.493L104.95 74.449H105.043L108.963 63.5057H111.506L106.233 77.5057L104.996 80.7957C104.716 81.5268 104.413 82.0946 104.086 82.499C103.775 82.9035 103.246 83.1057 102.5 83.1057H99.2797ZM118.566 77.7857C117.306 77.7857 116.178 77.4901 115.183 76.899C114.187 76.2923 113.402 75.4446 112.826 74.3557C112.251 73.2668 111.963 71.9835 111.963 70.5057C111.963 69.0123 112.251 67.7212 112.826 66.6323C113.402 65.5435 114.187 64.7035 115.183 64.1123C116.178 63.5212 117.306 63.2257 118.566 63.2257C119.857 63.2257 121.001 63.5212 121.996 64.1123C122.992 64.7035 123.77 65.5435 124.33 66.6323C124.89 67.7212 125.17 69.0123 125.17 70.5057C125.17 71.9835 124.882 73.2746 124.306 74.379C123.746 75.4679 122.968 76.3079 121.973 76.899C120.977 77.4901 119.842 77.7857 118.566 77.7857ZM118.566 75.499C119.811 75.499 120.798 75.0479 121.53 74.1457C122.276 73.2279 122.65 72.0146 122.65 70.5057C122.65 68.9812 122.276 67.7679 121.53 66.8657C120.798 65.9635 119.811 65.5123 118.566 65.5123C117.337 65.5123 116.35 65.9635 115.603 66.8657C114.856 67.7679 114.483 68.9812 114.483 70.5057C114.483 72.0146 114.856 73.2279 115.603 74.1457C116.35 75.0479 117.337 75.499 118.566 75.499ZM133.072 77.7623C132.061 77.7623 131.167 77.529 130.389 77.0623C129.627 76.5957 129.028 75.9423 128.592 75.1023C128.172 74.2623 127.962 73.2979 127.962 72.209V63.5057H130.482V71.649C130.482 72.8468 130.778 73.7879 131.369 74.4723C131.96 75.1412 132.784 75.4757 133.842 75.4757C134.947 75.4757 135.826 75.1257 136.479 74.4257C137.148 73.7101 137.482 72.7768 137.482 71.6257V63.5057H140.002V77.5057H137.506V75.079H137.412C137.023 75.9501 136.456 76.619 135.709 77.0857C134.962 77.5368 134.083 77.7623 133.072 77.7623ZM153.658 77.7623C152.273 77.7623 151.145 77.3735 150.274 76.5957C149.419 75.8023 148.991 74.7835 148.991 73.539C148.991 72.2168 149.419 71.1901 150.274 70.459C151.145 69.7123 152.374 69.339 153.961 69.339H158.044V68.639C158.044 67.6123 157.764 66.819 157.204 66.259C156.66 65.6835 155.89 65.3957 154.894 65.3957C154.07 65.3957 153.385 65.5901 152.841 65.979C152.312 66.3523 151.962 66.889 151.791 67.589H149.224C149.458 66.2357 150.088 65.1701 151.114 64.3923C152.141 63.6146 153.417 63.2257 154.941 63.2257C156.668 63.2257 158.013 63.6923 158.978 64.6257C159.958 65.559 160.448 66.8735 160.448 68.569V77.5057H158.068V75.079H157.974C157.617 75.9035 157.049 76.5568 156.271 77.039C155.493 77.5212 154.622 77.7623 153.658 77.7623ZM154.171 75.6623C154.902 75.6623 155.555 75.4912 156.131 75.149C156.722 74.8068 157.189 74.3479 157.531 73.7723C157.873 73.1812 158.044 72.5279 158.044 71.8123V71.2523H154.124C153.222 71.2523 152.53 71.4468 152.048 71.8357C151.581 72.209 151.348 72.7379 151.348 73.4223C151.348 74.1068 151.604 74.6512 152.118 75.0557C152.631 75.4601 153.315 75.6623 154.171 75.6623ZM164.285 77.5057V63.5057H166.688V66.3057H166.781C167.092 65.4346 167.598 64.7346 168.298 64.2057C169.013 63.6612 169.885 63.389 170.911 63.389H171.938V65.629H170.771C169.48 65.629 168.492 66.0412 167.808 66.8657C167.139 67.6901 166.805 68.8023 166.805 70.2023V77.5057H164.285ZM179.372 77.7857C178.112 77.7857 176.984 77.4901 175.988 76.899C174.993 76.2923 174.207 75.4446 173.632 74.3557C173.072 73.2512 172.792 71.9523 172.792 70.459C172.792 68.9812 173.072 67.7057 173.632 66.6323C174.192 65.5435 174.954 64.7035 175.918 64.1123C176.883 63.5212 177.987 63.2257 179.232 63.2257C180.398 63.2257 181.433 63.4901 182.335 64.019C183.253 64.5479 183.976 65.3101 184.505 66.3057C185.034 67.3012 185.298 68.4757 185.298 69.829V70.949H175.218C175.312 72.3646 175.732 73.4923 176.478 74.3323C177.225 75.1723 178.182 75.5923 179.348 75.5923C180.188 75.5923 180.904 75.3823 181.495 74.9623C182.086 74.5423 182.483 73.9668 182.685 73.2357H185.252C185.065 74.1846 184.692 75.0012 184.132 75.6857C183.572 76.3546 182.887 76.8757 182.078 77.249C181.27 77.6068 180.367 77.7857 179.372 77.7857ZM175.335 69.0357H182.848C182.74 67.8846 182.358 66.9901 181.705 66.3523C181.052 65.7146 180.22 65.3957 179.208 65.3957C178.213 65.3957 177.373 65.7223 176.688 66.3757C176.004 67.0135 175.553 67.9001 175.335 69.0357ZM194.629 77.5057V63.5057H197.149V77.5057H194.629ZM195.889 61.5923C195.453 61.5923 195.08 61.4368 194.769 61.1257C194.458 60.8146 194.302 60.4412 194.302 60.0057C194.302 59.5701 194.458 59.1968 194.769 58.8857C195.08 58.5746 195.453 58.419 195.889 58.419C196.324 58.419 196.698 58.5746 197.009 58.8857C197.32 59.1968 197.476 59.5701 197.476 60.0057C197.476 60.4412 197.32 60.8146 197.009 61.1257C196.698 61.4368 196.324 61.5923 195.889 61.5923ZM200.917 77.5057V63.5057H203.413V65.769H203.507C203.911 64.9601 204.479 64.3379 205.21 63.9023C205.941 63.4668 206.805 63.249 207.8 63.249C208.811 63.249 209.706 63.4979 210.483 63.9957C211.261 64.4779 211.868 65.1468 212.303 66.0023C212.739 66.8579 212.957 67.8379 212.957 68.9423V77.5057H210.437V69.3857C210.437 68.1879 210.126 67.2468 209.503 66.5623C208.897 65.8779 208.041 65.5357 206.937 65.5357C205.832 65.5357 204.969 65.8779 204.347 66.5623C203.74 67.2468 203.437 68.1879 203.437 69.3857V77.5057H200.917ZM221.351 77.7857C219.671 77.7857 218.302 77.3735 217.244 76.549C216.202 75.709 215.634 74.589 215.541 73.189H218.014C218.123 73.9979 218.473 74.6201 219.064 75.0557C219.655 75.4757 220.449 75.6857 221.444 75.6857C222.362 75.6857 223.062 75.5068 223.544 75.149C224.027 74.7912 224.268 74.2857 224.268 73.6323C224.268 72.6057 223.56 71.9446 222.144 71.649L219.834 71.1357C217.314 70.6068 216.054 69.3623 216.054 67.4023C216.054 66.1579 216.521 65.1546 217.454 64.3923C218.388 63.6146 219.609 63.2257 221.118 63.2257C222.611 63.2257 223.84 63.6223 224.804 64.4157C225.784 65.1935 226.337 66.2512 226.461 67.589H224.034C223.879 66.8579 223.537 66.2979 223.008 65.909C222.494 65.5046 221.825 65.3023 221.001 65.3023C220.208 65.3023 219.578 65.4735 219.111 65.8157C218.644 66.1579 218.411 66.6246 218.411 67.2157C218.411 67.6823 218.574 68.0635 218.901 68.359C219.228 68.639 219.749 68.8568 220.464 69.0123L222.798 69.5023C224.073 69.7823 225.022 70.249 225.644 70.9023C226.282 71.5401 226.601 72.3801 226.601 73.4223C226.601 74.7601 226.134 75.8257 225.201 76.619C224.268 77.3968 222.984 77.7857 221.351 77.7857ZM234.263 77.7623C233.252 77.7623 232.357 77.529 231.579 77.0623C230.817 76.5957 230.218 75.9423 229.783 75.1023C229.363 74.2623 229.153 73.2979 229.153 72.209V63.5057H231.673V71.649C231.673 72.8468 231.968 73.7879 232.559 74.4723C233.15 75.1412 233.975 75.4757 235.033 75.4757C236.137 75.4757 237.016 75.1257 237.669 74.4257C238.338 73.7101 238.673 72.7768 238.673 71.6257V63.5057H241.193V77.5057H238.696V75.079H238.603C238.214 75.9501 237.646 76.619 236.899 77.0857C236.153 77.5368 235.274 77.7623 234.263 77.7623ZM245.13 77.5057V63.5057H247.534V66.3057H247.627C247.938 65.4346 248.444 64.7346 249.144 64.2057C249.859 63.6612 250.73 63.389 251.757 63.389H252.784V65.629H251.617C250.326 65.629 249.338 66.0412 248.654 66.8657C247.985 67.6901 247.65 68.8023 247.65 70.2023V77.5057H245.13ZM260.217 77.7857C258.957 77.7857 257.83 77.4901 256.834 76.899C255.839 76.2923 255.053 75.4446 254.477 74.3557C253.917 73.2512 253.637 71.9523 253.637 70.459C253.637 68.9812 253.917 67.7057 254.477 66.6323C255.037 65.5435 255.8 64.7035 256.764 64.1123C257.729 63.5212 258.833 63.2257 260.077 63.2257C261.244 63.2257 262.279 63.4901 263.181 64.019C264.099 64.5479 264.822 65.3101 265.351 66.3057C265.88 67.3012 266.144 68.4757 266.144 69.829V70.949H256.064C256.157 72.3646 256.577 73.4923 257.324 74.3323C258.071 75.1723 259.027 75.5923 260.194 75.5923C261.034 75.5923 261.75 75.3823 262.341 74.9623C262.932 74.5423 263.329 73.9668 263.531 73.2357H266.097C265.911 74.1846 265.537 75.0012 264.977 75.6857C264.417 76.3546 263.733 76.8757 262.924 77.249C262.115 77.6068 261.213 77.7857 260.217 77.7857ZM256.181 69.0357H263.694C263.585 67.8846 263.204 66.9901 262.551 66.3523C261.897 65.7146 261.065 65.3957 260.054 65.3957C259.059 65.3957 258.219 65.7223 257.534 66.3757C256.85 67.0135 256.399 67.9001 256.181 69.0357ZM274.063 77.7857C272.897 77.7857 271.878 77.4823 271.007 76.8757C270.135 76.269 269.459 75.4212 268.977 74.3323C268.494 73.2279 268.253 71.9523 268.253 70.5057C268.253 69.0435 268.494 67.7679 268.977 66.679C269.459 65.5901 270.135 64.7423 271.007 64.1357C271.878 63.529 272.897 63.2257 274.063 63.2257C276.117 63.2257 277.54 64.0735 278.333 65.769H278.427V57.9057H280.947V77.5057H278.45V75.219H278.357C277.548 76.9301 276.117 77.7857 274.063 77.7857ZM274.74 75.5457C275.907 75.5457 276.809 75.1801 277.447 74.449C278.1 73.7023 278.427 72.7301 278.427 71.5323V69.479C278.427 68.2812 278.1 67.3168 277.447 66.5857C276.809 65.839 275.907 65.4657 274.74 65.4657C273.542 65.4657 272.578 65.9246 271.847 66.8423C271.131 67.7601 270.773 68.9812 270.773 70.5057C270.773 72.0301 271.131 73.2512 271.847 74.169C272.578 75.0868 273.542 75.5457 274.74 75.5457ZM285.067 71.719L284.833 64.929V58.6057H287.4V64.9057L287.167 71.719H285.067ZM286.117 77.7857C285.634 77.7857 285.214 77.6146 284.857 77.2723C284.514 76.9146 284.343 76.4946 284.343 76.0123C284.343 75.5301 284.514 75.1179 284.857 74.7757C285.214 74.4335 285.634 74.2623 286.117 74.2623C286.614 74.2623 287.034 74.4335 287.377 74.7757C287.719 75.1179 287.89 75.5301 287.89 76.0123C287.89 76.4946 287.719 76.9146 287.377 77.2723C287.034 77.6146 286.614 77.7857 286.117 77.7857Z" fill="white"/>
</g>
<defs>
<filter id="filter0_b_522_3615" x="-6" y="-6" width="351" height="121.011" filterUnits="userSpaceOnUse" color-interpolation-filters="sRGB">
<feFlood flood-opacity="0" result="BackgroundImageFix"/>
<feGaussianBlur in="BackgroundImageFix" stdDeviation="3"/>
<feComposite in2="SourceAlpha" operator="in" result="effect1_backgroundBlur_522_3615"/>
<feBlend mode="normal" in="SourceGraphic" in2="effect1_backgroundBlur_522_3615" result="shape"/>
</filter>
<filter id="filter1_f_522_3615" x="5" y="27" width="96" height="95" filterUnits="userSpaceOnUse" color-interpolation-filters="sRGB">
<feFlood flood-opacity="0" result="BackgroundImageFix"/>
<feBlend mode="normal" in="SourceGraphic" in2="BackgroundImageFix" result="shape"/>
<feGaussianBlur stdDeviation="15" result="effect1_foregroundBlur_522_3615"/>
</filter>
<linearGradient id="paint0_linear_522_3615" x1="347.5" y1="7" x2="-2.5" y2="96" gradientUnits="userSpaceOnUse">
<stop offset="0.05" stop-color="#5ED6B5"/>
<stop offset="0.27" stop-color="#256654"/>
<stop offset="0.45" stop-color="#48A38A"/>
<stop offset="0.585" stop-color="#174A3C"/>
<stop offset="0.78" stop-color="#5ED6B5"/>
<stop offset="1" stop-color="#143F34"/>
</linearGradient>
<radialGradient id="paint1_radial_522_3615" cx="0" cy="0" r="1" gradientUnits="userSpaceOnUse" gradientTransform="translate(54.1682 14.767) scale(32.1283 32.1283)">
<stop offset="0.1683" stop-color="#61DEBB"/>
<stop offset="0.249" stop-color="#5ED7B5"/>
<stop offset="0.3659" stop-color="#56C4A5"/>
<stop offset="0.505" stop-color="#48A48A"/>
<stop offset="0.661" stop-color="#347865"/>
<stop offset="0.8305" stop-color="#1C4036"/>
<stop offset="1"/>
</radialGradient>
<radialGradient id="paint2_radial_522_3615" cx="0" cy="0" r="1" gradientUnits="userSpaceOnUse" gradientTransform="translate(53.6636 86.421) scale(58.268 58.268)">
<stop offset="0.1683" stop-color="#61DEBB"/>
<stop offset="0.249" stop-color="#5ED7B5"/>
<stop offset="0.3659" stop-color="#56C4A5"/>
<stop offset="0.505" stop-color="#48A48A"/>
<stop offset="0.661" stop-color="#347865"/>
<stop offset="0.8305" stop-color="#1C4036"/>
<stop offset="1"/>
</radialGradient>
<radialGradient id="paint3_radial_522_3615" cx="0" cy="0" r="1" gradientUnits="userSpaceOnUse" gradientTransform="translate(52.8702 30.115) scale(64.2421)">
<stop stop-color="#61DEBB"/>
<stop offset="0.0184" stop-color="#5ED6B5"/>
<stop offset="0.1666" stop-color="#459E85"/>
<stop offset="0.3154" stop-color="#306E5D"/>
<stop offset="0.4616" stop-color="#1F463B"/>
<stop offset="0.6049" stop-color="#112821"/>
<stop offset="0.7443" stop-color="#08120F"/>
<stop offset="0.8781" stop-color="#020404"/>
<stop offset="1"/>
</radialGradient>
<radialGradient id="paint4_radial_522_3615" cx="0" cy="0" r="1" gradientUnits="userSpaceOnUse" gradientTransform="translate(53.3271 85.4118) scale(86.6894 86.6894)">
<stop offset="0.351" stop-color="#347865"/>
<stop offset="0.3829" stop-color="#2F6D5C"/>
<stop offset="0.5137" stop-color="#1E463B"/>
<stop offset="0.643" stop-color="#112821"/>
<stop offset="0.7689" stop-color="#08120F"/>
<stop offset="0.8898" stop-color="#020404"/>
<stop offset="1"/>
</radialGradient>
<linearGradient id="paint5_linear_522_3615" x1="54.1564" y1="48.9852" x2="56.6657" y2="59.8094" gradientUnits="userSpaceOnUse">
<stop stop-color="#75E3EA"/>
<stop offset="1" stop-color="#75E3EA"/>
</linearGradient>
</defs>
</svg>
