<?xml version="1.0" encoding="utf-8"?>
<!-- Generator: Adobe Illustrator 27.5.0, SVG Export Plug-In . SVG Version: 6.00 Build 0)  -->
<svg version="1.1" id="Layer_1" xmlns="http://www.w3.org/2000/svg" xmlns:xlink="http://www.w3.org/1999/xlink" x="0px" y="0px"
	 viewBox="0 0 932.8 171.7" style="enable-background:new 0 0 932.8 171.7;" xml:space="preserve">
<style type="text/css">
	.st0{clip-path:url(#SVGID_00000011030441929878409260000007947826126653755053_);}
	.st1{fill:#1986C3;}
	.st2{fill:#282E64;}
</style>
<g>
	<defs>
		<rect id="SVGID_1_" y="4.2" width="349.6" height="163.3"/>
	</defs>
	<clipPath id="SVGID_00000009560603797717461160000009033729112038548660_">
		<use xlink:href="#SVGID_1_"  style="overflow:visible;"/>
	</clipPath>
	<g style="clip-path:url(#SVGID_00000009560603797717461160000009033729112038548660_);">
		<path class="st1" d="M174.8,132.5l-29.1-29.1l-17.5,17.5l46.6,46.6l46.6-46.6l-17.5-17.5L174.8,132.5z"/>
		<path class="st2" d="M145.7,68.3l-17.5,17.5l0.1,0.1l-0.1,0.1l-17.5,17.5l-29.1,29.1L34.9,85.8l46.7-46.7l29.1,29.1l17.5-17.5
			L81.6,4.2L0,85.8l81.6,81.6l46.6-46.6l17.5-17.5l17.6-17.6L145.7,68.3z"/>
		<path class="st2" d="M268,4.2l-46.6,46.6l17.5,17.5L268,39.1l46.7,46.7L268,132.5l-29.1-29.1L221.4,86l-0.1-0.1l0.1-0.1
			l-17.5-17.5l-17.6,17.6l17.6,17.6l17.5,17.5l46.6,46.6l81.6-81.6L268,4.2z"/>
		<path class="st1" d="M238.9,68.3l-17.5-17.5L174.8,4.2l-46.6,46.6l-17.5,17.5L93.2,85.8l17.6,17.6L128.2,86l-0.1-0.1l0.1-0.1
			l17.5-17.5l29.1-29.1l29.1,29.1l17.5,17.5l0.1,0.1l-0.1,0.1l17.5,17.5l17.6-17.6L238.9,68.3z"/>
	</g>
</g>
<g>
	<g>
		<path class="st1" d="M526.1,39.9v64.2h17c1.5,0,2.8-0.1,3.9-0.3c1.1-0.2,2.2-0.6,3.2-1c1-0.5,2.1-1.1,3.3-1.9
			c1.1-0.8,2.5-1.8,4-2.9l-5.5,11.5h-37.4V39.9H526.1z"/>
		<path class="st1" d="M577.1,39.9v64.2h17c1.5,0,2.8-0.1,3.9-0.3c1.1-0.2,2.2-0.6,3.2-1c1-0.5,2.1-1.1,3.3-1.9
			c1.1-0.8,2.5-1.8,4-2.9l-5.5,11.5h-37.4V39.9H577.1z"/>
		<path class="st1" d="M633.4,109.4h-11.7V39.7h11.7V109.4z"/>
		<path class="st1" d="M680.2,44.7c-0.4-1-0.8-1.8-1.4-2.6c-0.6-0.8-1.6-1.5-3.1-2.2h15.7l46.1,69.5h-14.1l-13.9-19.7h-45.3
			l-10.8,19.7h-7.4L680.2,44.7z M705.7,82.8l-21.2-33.4l-17.3,33.4H705.7z"/>
		<path class="st1" d="M747.9,44.7c0-0.7-0.2-1.5-0.7-2.6c-0.4-1.1-1.5-1.8-3.1-2.2h10l33.9,44.9c0.5,0.7,0.9,1.3,1.3,1.7
			c0.3,0.4,0.6,0.8,0.7,1c0.1,0.3,0.2,0.6,0.2,0.9c0,0.3,0.1,0.7,0.1,1.1l0.1-49.6h6.1v72.9l-40.6-54.6c-0.6-0.7-1-1.3-1.2-1.6
			c-0.2-0.3-0.3-0.6-0.4-0.8c-0.1-0.2-0.2-0.4-0.2-0.6c0-0.2-0.2-0.6-0.4-1.2v55.4h-5.7V44.7z"/>
		<path class="st1" d="M873.1,108c-0.9,0.4-2.9,0.9-6,1.6c-3.1,0.7-7.6,1-13.5,1c-2.5,0-5.3-0.1-8.4-0.3c-6.4-0.4-12-1.8-16.9-4.1
			c-4.9-2.3-9-5.3-12.3-8.9c-3.3-3.6-5.8-7.8-7.4-12.4c-1.7-4.6-2.5-9.4-2.5-14.4c0-6.3,1.3-11.5,4-15.8c2.7-4.3,6.1-7.7,10.1-10.2
			c4.1-2.5,8.6-4.4,13.5-5.5c4.9-1.1,9.6-1.7,14.1-1.7c1.3,0,3,0.1,5.1,0.3c2.1,0.2,4.1,0.4,6.1,0.7c2,0.3,3.7,0.5,5.2,0.7
			c1.5,0.2,2.4,0.4,2.6,0.4l4.1,9.4c0.1,0.2-0.5-0.1-1.7-0.9c-1.2-0.8-2.9-1.7-5.2-2.8c-2.3-1.1-5.1-2.1-8.6-3
			c-3.4-1-7.4-1.4-11.9-1.4c-3.7,0-7.2,0.5-10.4,1.5c-3.3,1-6.1,2.6-8.6,4.7c-2.5,2.1-4.4,4.7-5.9,7.9c-1.5,3.2-2.2,7-2.2,11.3
			c0,5.3,0.9,10.2,2.6,14.7c1.7,4.5,4,8.5,6.7,12c2.8,3.5,5.8,6.4,9.3,8.6c3.4,2.2,6.9,3.7,10.3,4.5c2.4,0.5,4.6,0.9,6.7,1.1
			c2.1,0.2,4.1,0.3,6,0.3c4.8,0,8.6-0.5,11.5-1.4c2.9-0.9,4.7-1.6,5.2-2.2L873.1,108z"/>
		<path class="st1" d="M881.1,39.9h41.1l3.1,7.8c-1.5-0.9-3.2-1.5-5.2-1.8c-2-0.3-4.3-0.5-6.8-0.5h-20.5v24.3h21.4
			c1.7,0,3.1-0.1,4.1-0.4c1-0.3,2-1,2.9-2.2v10.9c-0.8-0.8-1.7-1.5-2.8-2c-1-0.6-2.4-0.8-4.2-0.8h-21.4v28.9h21.6
			c1.5,0,2.8-0.1,3.9-0.3c1.1-0.2,2.3-0.6,3.6-1c1.2-0.5,2.6-1.1,4.1-1.9c1.5-0.8,3.4-1.8,5.6-2.9l-5.5,11.5h-45V39.9z"/>
		<g>
			<path class="st1" d="M350,51.4c-0.5,0-0.7,0-0.7,0C349.5,51.5,349.7,51.4,350,51.4z"/>
			<path class="st1" d="M434.5,10.2h-22.4c2,0.9,3.4,1.9,4.3,3.1c0.9,1.2,1.6,2.4,2.1,3.6l-18.9,35.9c-13.8-1.7-30.2-2.4-49.6-1.3
				c3.7-0.2,22.2-0.5,46.8,6.6l-27.1,51.4h10.1l13.6-25.9l6.1-12.3h0l5.4-10.7c22.9,7.9,50,22.3,75.2,48.8h20.4L434.5,10.2z
				 M424.5,21.9l29.1,47c-7.5-4.3-22-11-45.4-14.9L424.5,21.9z"/>
		</g>
	</g>
	<rect x="369.6" y="122.2" class="st2" width="562" height="1"/>
	<g>
		<g>
			<path class="st2" d="M377.1,160.9H373v-31.2h4.1V160.9z"/>
			<path class="st2" d="M396.6,139v2.8c1-1.3,2.2-2.2,3.7-2.6c1.5-0.4,3.1-0.6,4.8-0.6c3.4,0,5.7,0.6,7.1,1.7
				c1.4,1.1,2.1,3.2,2.1,6.2v14.5h-3.8v-14.2c0-2.2-0.4-3.6-1.2-4.4c-0.8-0.7-2.5-1.1-5.1-1.1c-2.4,0-4.2,0.5-5.5,1.5
				c-1.3,1-1.9,2.6-1.9,4.8v13.4h-3.8V139H396.6z"/>
			<path class="st2" d="M446.1,144.7c0-1.2-0.2-2-0.6-2.5c-0.4-0.5-1.4-0.8-2.8-0.8c-0.7,0-1.4,0-2.1,0c-0.7,0-1.4,0-2.1,0
				c-0.3,0-0.5,0-0.8,0c-0.3,0-0.5,0-0.8,0c-0.5,0-1.1,0.1-1.6,0.2c-0.5,0.1-1,0.3-1.3,0.5c-0.3,0.2-0.5,0.5-0.7,0.8
				c-0.1,0.3-0.2,0.6-0.2,1c0,0.1,0,0.3,0,0.4c0,0.1,0,0.3,0,0.4c0,1.3,0.2,2.3,0.7,2.7c0.5,0.5,1.5,0.8,3.1,0.8c0.2,0,0.5,0,0.7,0
				c0.2,0,0.5,0,0.7,0c0.2,0,0.5,0,0.7,0s0.5,0,0.7,0c2.7,0,5.2,0.3,7.4,0.9c2.2,0.6,3.3,2.4,3.3,5.4c0,3.2-1,5.1-2.9,5.8
				c-2,0.7-4.5,1-7.7,1c-0.2,0-0.3,0-0.5,0c-0.2,0-0.3,0-0.5,0c-2.5,0-4.8-0.4-6.9-1c-2.1-0.6-3.1-2.3-3.1-5c0-0.1,0-0.2,0-0.3
				c0-0.1,0-0.2,0-0.3c0-0.1,0-0.2,0-0.3c0-0.1,0-0.2,0-0.3h3.8c0,2,0.4,3.3,1.3,3.9c0.9,0.6,2.4,0.9,4.6,0.9h0.9c0.4,0,0.8,0,1.2,0
				c0.4,0,0.9,0,1.3-0.1c0.7,0,1.3-0.1,1.9-0.2c0.6-0.1,1.1-0.3,1.5-0.6c0.4-0.2,0.6-0.5,0.8-0.9c0.2-0.4,0.2-0.8,0.3-1.2
				c0-0.2,0-0.4,0-0.6s0-0.4,0-0.6c0-1.7-0.5-2.7-1.5-3c-1-0.3-2.3-0.4-3.8-0.4c-0.1,0-0.1,0-0.2,0s-0.1,0-0.2,0c-0.2,0-0.4,0-0.6,0
				c-0.2,0-0.4,0-0.7,0c-0.2,0-0.4,0-0.5,0c-0.2,0-0.4,0-0.5,0c-2.6-0.1-4.8-0.4-6.6-1c-1.8-0.5-2.8-2.2-2.8-4.9c0-0.3,0-0.6,0-0.9
				c0-0.3,0-0.6,0.1-0.9c0.1-0.6,0.2-1.2,0.5-1.8c0.2-0.6,0.7-1.1,1.3-1.4c0.6-0.4,1.4-0.7,2.2-0.9c0.8-0.2,1.7-0.4,2.6-0.5
				c0.6-0.1,1.2-0.1,1.8-0.1c0.6,0,1.1,0,1.6,0c0.5,0,1,0,1.5,0c0.5,0,1,0,1.5,0c1.9,0.1,3.7,0.5,5.2,1.1c1.6,0.7,2.4,2,2.4,4.1
				c0,0.1,0,0.1,0,0.2c0,0.1,0,0.1,0,0.2c0,0.1,0,0.1,0,0.2c0,0.1,0,0.1,0,0.2H446.1z"/>
			<path class="st2" d="M486.1,160.9h-3.5V158c-1.1,1.4-2.3,2.3-3.7,2.6c-1.4,0.4-3,0.5-4.9,0.5c-3,0-5.2-0.6-6.6-1.8
				c-1.4-1.2-2.1-3.1-2.1-5.8V139h3.8v14.6c0,1.9,0.4,3.2,1.1,3.9c0.7,0.7,2.3,1,4.6,1c3,0,4.9-0.5,5.9-1.5c1-1,1.5-2.7,1.5-5.1V139
				h3.8V160.9z"/>
			<path class="st2" d="M505.6,139l-0.1,2.5c0.7-1.1,1.7-1.9,2.9-2.3c1.2-0.5,2.5-0.7,4-0.7c2.6,0,4.4,0.5,5.6,1.6
				c1.2,1.1,1.7,2.7,1.7,4.9c0,0.2,0,0.4,0,0.6c0,0.2,0,0.4,0,0.7h-3.7c0-0.2,0-0.5,0-0.8s0-0.6,0-0.8c0-1.3-0.4-2.2-1.1-2.7
				c-0.7-0.5-1.8-0.7-3.3-0.7c-1.9,0-3.4,0.4-4.4,1.3c-1,0.8-1.5,2.1-1.5,3.8v1.2v13.4h-3.8V139H505.6z"/>
			<path class="st2" d="M532.4,145.4c0-3,1-4.8,2.9-5.4c1.9-0.6,4.3-0.9,7.1-0.9c3.5,0,6.1,0.4,8,1.3c1.9,0.8,2.8,3,2.8,6.4v14.2
				h-3.5l0.2-2.2c-1.1,1.2-2.3,1.9-3.8,2.2c-1.5,0.3-3,0.4-4.7,0.4c-3.1,0-5.5-0.4-7.3-1.2c-1.8-0.8-2.6-2.7-2.6-5.7
				c0-2.9,0.9-4.7,2.8-5.5c1.9-0.7,4.2-1.1,7-1.1c0.4,0,0.9,0,1.3,0c0.5,0,0.9,0,1.3,0.1c0.6,0.1,1.2,0.1,1.8,0.2
				c0.6,0.1,1.2,0.2,1.7,0.4c0.4,0.1,0.7,0.3,1,0.6c0.3,0.3,0.5,0.6,0.7,0.9v-2.6c0-2.7-0.4-4.4-1.3-5c-0.9-0.7-2.8-1-5.9-1
				c-0.3,0-0.7,0-1,0c-0.4,0-0.7,0-1.1,0.1c-0.5,0-1,0.1-1.5,0.2c-0.5,0.1-0.9,0.3-1.2,0.5c-0.4,0.2-0.6,0.5-0.8,0.8
				c-0.1,0.3-0.2,0.7-0.3,1.1c0,0.1,0,0.2,0,0.3c0,0.1,0,0.2,0,0.3c0,0.1,0,0.2,0,0.3c0,0.1,0,0.2,0,0.4H532.4z M536.7,157.7
				c0.9,0.6,2.4,0.9,4.4,0.9c0.4,0,0.8,0,1.1,0c0.4,0,0.8,0,1.2,0c1.5-0.1,2.9-0.4,4.1-0.9c1.3-0.5,1.9-1.6,1.9-3.2
				c0-2-0.7-3.2-2-3.6c-1.4-0.4-3-0.7-4.9-0.7h-0.9c-0.3,0-0.6,0-1,0c-0.4,0-0.7,0-1.1,0c-0.6,0.1-1.2,0.2-1.8,0.3
				c-0.6,0.1-1.1,0.4-1.5,0.7c-0.3,0.2-0.5,0.4-0.6,0.7c-0.1,0.3-0.2,0.6-0.3,1c0,0.2,0,0.3,0,0.5s0,0.3,0,0.5
				C535.4,155.9,535.8,157.1,536.7,157.7z"/>
			<path class="st2" d="M572.6,139v2.8c1-1.3,2.2-2.2,3.7-2.6c1.5-0.4,3.1-0.6,4.8-0.6c3.4,0,5.7,0.6,7.1,1.7
				c1.4,1.1,2.1,3.2,2.1,6.2v14.5h-3.8v-14.2c0-2.2-0.4-3.6-1.2-4.4c-0.8-0.7-2.5-1.1-5.1-1.1c-2.4,0-4.2,0.5-5.5,1.5
				c-1.3,1-1.9,2.6-1.9,4.8v13.4h-3.8V139H572.6z"/>
			<path class="st2" d="M627.3,153c0,3.4-0.8,5.6-2.4,6.6c-1.6,1-4.3,1.5-8.1,1.5c-5.3,0-8.5-0.9-9.6-2.8c-1.1-1.9-1.6-4.9-1.6-9
				c0-3.7,0.7-6.4,2.2-8s4.4-2.5,8.9-2.5c2.8,0,5.2,0.4,7.2,1.1c2,0.8,3,2.6,3,5.5c0,0.1,0,0.1,0,0.2c0,0.1,0,0.1,0,0.1
				c0,0.1,0,0.1,0,0.2c0,0.1,0,0.1,0,0.2h-3.7c0-2-0.5-3.2-1.4-3.8c-0.9-0.6-2.5-0.9-4.6-0.9c-3.3,0-5.4,0.5-6.3,1.4
				c-0.9,0.9-1.3,2.9-1.3,6.1v2.2c0,2.5,0.3,4.3,1,5.5c0.7,1.2,2.6,1.8,5.9,1.8c2.8,0,4.7-0.3,5.7-0.9c1-0.6,1.5-2.1,1.5-4.6H627.3z
				"/>
			<path class="st2" d="M662.9,154.3c0,3.2-1,5.2-2.9,5.9c-2,0.7-4.5,1-7.7,1c-4.7,0-7.8-0.8-9.2-2.3c-1.4-1.6-2.1-4.3-2.1-8.3
				c0-3.8,0.5-6.7,1.6-8.8c1.1-2,4.1-3,9.1-3c4.7,0,7.8,0.7,9.1,2.1c1.4,1.4,2.1,4.1,2.1,8.1v1.6h-18.1c0,2.4,0.3,4.4,0.9,5.9
				c0.6,1.5,2.6,2.2,6,2.2h1c0.3,0,0.7,0,1.2,0c0.4,0,0.9,0,1.3-0.1c0.5,0,1.1-0.1,1.6-0.2c0.5-0.1,0.9-0.3,1.3-0.5
				c0.3-0.2,0.6-0.5,0.7-0.9c0.1-0.4,0.2-0.7,0.3-1.1c0-0.1,0-0.3,0-0.4s0-0.3,0-0.4v-0.7H662.9z M658.1,142.6
				c-0.7-0.9-2.8-1.4-6-1.4c-2.9,0-4.8,0.5-5.7,1.4c-0.9,0.9-1.4,2.7-1.4,5.4h14.3C659.2,145.3,658.8,143.5,658.1,142.6z"/>
		</g>
		<path class="st2" d="M701.2,130h17.3c3.2,0,5.5,0.5,7,1.6c1.5,1.1,2.2,3.1,2.2,6.1c0,1.8-0.3,3.3-0.8,4.4
			c-0.5,1.2-1.8,2.1-3.8,2.7c2.4,0.6,3.9,1.4,4.6,2.6c0.7,1.2,1.1,2.8,1.1,4.8c0,2.8-0.6,5-1.9,6.6c-1.3,1.6-3.8,2.4-7.4,2.4h-18.3
			V130z M716.6,143.6c2.7,0,4.5-0.4,5.5-1.1c1-0.7,1.5-2.2,1.5-4.5c0-1.9-0.4-3.2-1.2-3.9c-0.8-0.7-2.2-1-4.4-1h-12.8v10.5H716.6z
			 M716.4,158.2c3.1,0,5.2-0.3,6.4-0.9c1.2-0.6,1.8-2.2,1.8-4.9c0-1.6-0.3-3-0.9-4c-0.6-1.1-2-1.6-4.3-1.6h-1.3h-12.9v11.5H716.4z"
			/>
		<path class="st2" d="M747.2,139.4l-0.1,2.5c0.7-1.1,1.7-1.9,2.9-2.3c1.2-0.5,2.5-0.7,4-0.7c2.6,0,4.4,0.5,5.6,1.6
			c1.2,1.1,1.7,2.7,1.7,4.9c0,0.2,0,0.4,0,0.6c0,0.2,0,0.4,0,0.7h-3.7c0-0.2,0-0.5,0-0.8s0-0.6,0-0.8c0-1.3-0.4-2.2-1.1-2.7
			c-0.7-0.5-1.8-0.7-3.3-0.7c-1.9,0-3.4,0.4-4.4,1.3s-1.5,2.1-1.5,3.8v1.2v13.4h-3.8v-21.9H747.2z"/>
		<path class="st2" d="M811.1,148.2h1.5l9-8.8h4.6l-10.7,10.1l12.6,11.8h-4.9l-10.7-10.5h-1.5v10.5h-3.8V130h3.8V148.2z"/>
		<path class="st2" d="M861.3,154.6c0,3.2-1,5.2-2.9,5.9c-2,0.7-4.5,1-7.7,1c-4.7,0-7.8-0.8-9.2-2.3c-1.4-1.6-2.1-4.3-2.1-8.3
			c0-3.8,0.5-6.7,1.6-8.8c1.1-2,4.1-3,9.1-3c4.7,0,7.8,0.7,9.1,2.1c1.4,1.4,2.1,4.1,2.1,8.1v1.6h-18.1c0,2.4,0.3,4.4,0.9,5.9
			c0.6,1.5,2.6,2.2,6,2.2h1c0.3,0,0.7,0,1.2,0c0.4,0,0.9,0,1.3-0.1c0.5,0,1.1-0.1,1.6-0.2c0.5-0.1,0.9-0.3,1.3-0.5
			c0.3-0.2,0.6-0.5,0.7-0.9c0.1-0.4,0.2-0.7,0.3-1.1c0-0.1,0-0.3,0-0.4s0-0.3,0-0.4v-0.7H861.3z M856.4,142.9
			c-0.7-0.9-2.8-1.4-6-1.4c-2.9,0-4.8,0.5-5.7,1.4c-0.9,0.9-1.4,2.7-1.4,5.4h14.3C857.5,145.6,857.1,143.8,856.4,142.9z"/>
		<path class="st2" d="M880,139.4l-0.1,2.5c0.7-1.1,1.7-1.9,2.9-2.3c1.2-0.5,2.5-0.7,4-0.7c2.6,0,4.4,0.5,5.6,1.6
			c1.2,1.1,1.7,2.7,1.7,4.9c0,0.2,0,0.4,0,0.6c0,0.2,0,0.4,0,0.7h-3.7c0-0.2,0-0.5,0-0.8s0-0.6,0-0.8c0-1.3-0.4-2.2-1.1-2.7
			c-0.7-0.5-1.8-0.7-3.3-0.7c-1.9,0-3.4,0.4-4.4,1.3c-1,0.8-1.5,2.1-1.5,3.8v1.2v13.4h-3.8v-21.9H880z"/>
		<path class="st2" d="M922.8,144.5c0-1.1-0.2-1.9-0.6-2.3c-0.4-0.5-1.4-0.7-2.8-0.8c-0.7,0-1.4,0-2.1,0c-0.7,0-1.4,0-2.1,0
			c-0.3,0-0.5,0-0.8,0c-0.3,0-0.5,0-0.8,0c-0.5,0-1.1,0.1-1.6,0.2c-0.5,0.1-1,0.2-1.3,0.5c-0.3,0.2-0.5,0.4-0.7,0.7
			c-0.1,0.3-0.2,0.6-0.2,0.9c0,0.1,0,0.2,0,0.3c0,0.1,0,0.2,0,0.3c0,1.2,0.2,2.1,0.7,2.5c0.5,0.4,1.5,0.7,3.1,0.7c0.2,0,0.5,0,0.7,0
			c0.2,0,0.5,0,0.7,0c0.2,0,0.5,0,0.7,0s0.5,0,0.7,0c2.7,0,5.2,0.3,7.4,0.8c2.2,0.5,3.3,2.2,3.3,4.9c0,2.9-1,4.7-2.9,5.3
			c-2,0.6-4.5,0.9-7.7,0.9c-0.2,0-0.3,0-0.5,0c-0.2,0-0.3,0-0.5,0c-2.5,0-4.8-0.3-6.9-0.9c-2.1-0.6-3.1-2.1-3.1-4.6
			c0-0.1,0-0.2,0-0.3c0-0.1,0-0.2,0-0.3c0-0.1,0-0.2,0-0.3c0-0.1,0-0.2,0-0.3h3.8c0,1.8,0.4,3,1.3,3.5c0.9,0.5,2.4,0.8,4.6,0.8h0.9
			c0.4,0,0.8,0,1.2,0c0.4,0,0.9,0,1.3-0.1c0.7,0,1.3-0.1,1.9-0.2c0.6-0.1,1.1-0.3,1.5-0.5c0.4-0.2,0.6-0.5,0.8-0.8
			c0.2-0.3,0.2-0.7,0.3-1.1c0-0.2,0-0.3,0-0.5s0-0.3,0-0.5c0-1.6-0.5-2.5-1.5-2.7c-1-0.3-2.3-0.4-3.8-0.4c-0.1,0-0.1,0-0.2,0
			c0,0-0.1,0-0.2,0c-0.2,0-0.4,0-0.6,0c-0.2,0-0.4,0-0.7,0c-0.2,0-0.4,0-0.5,0c-0.2,0-0.4,0-0.5,0c-2.6-0.1-4.8-0.4-6.6-0.9
			c-1.8-0.5-2.8-2-2.8-4.5c0-0.3,0-0.5,0-0.8c0-0.3,0-0.5,0.1-0.8c0.1-0.6,0.2-1.1,0.5-1.6c0.2-0.5,0.7-1,1.3-1.3
			c0.6-0.4,1.4-0.7,2.2-0.9c0.8-0.2,1.7-0.3,2.6-0.4c0.6-0.1,1.2-0.1,1.8-0.1c0.6,0,1.1,0,1.6,0c0.5,0,1,0,1.5,0c0.5,0,1,0,1.5,0
			c1.9,0.1,3.7,0.4,5.2,1c1.6,0.6,2.4,1.8,2.4,3.7c0,0.1,0,0.1,0,0.2c0,0.1,0,0.1,0,0.2c0,0.1,0,0.1,0,0.2c0,0.1,0,0.1,0,0.2H922.8z
			"/>
		<g>
			<path class="st2" d="M775,141.9c1.2-1.7,4.1-2.5,8.6-2.5c4.7,0,7.7,0.7,9.1,2.1c1.4,1.4,2.1,4.1,2.1,8.2c0,3.5-0.4,6.3-1.3,8.5
				c-0.9,2.2-3.8,3.2-8.9,3.2c-4.4,0-7.4-0.6-9.1-1.8c-1.7-1.2-2.5-3.8-2.5-7.8v-2C773.2,146.3,773.8,143.6,775,141.9z M777,151.6
				c0,0.3,0,0.6,0,1c0,0.4,0,0.7,0,1c0.1,0.9,0.2,1.7,0.4,2.5c0.2,0.8,0.5,1.4,1,1.8c0.4,0.3,0.9,0.6,1.5,0.7s1.3,0.2,1.9,0.2
				c0.1,0,0.2,0,0.3,0c0.1,0,0.2,0,0.3,0h1.6c2.1,0,3.8-0.3,4.9-0.8c1.1-0.5,1.8-1.8,1.9-3.8c0-0.4,0.1-0.8,0.1-1.2
				c0-0.4,0-0.8,0-1.2c0-0.4,0-0.8,0-1.2c0-0.4,0-0.8,0-1.2c0-2.6-0.3-4.5-0.8-5.6s-2.3-1.7-5.3-1.7h-0.8c-3.2,0-5.2,0.4-5.9,1.3
				c-0.8,0.9-1.2,2.8-1.2,5.8v0.7V151.6z"/>
		</g>
	</g>
</g>
</svg>
