<svg enable-background="new 0 0 1024 785" height="277.052003" viewBox="0 0 1024 785" width="360.943068" xmlns="http://www.w3.org/2000/svg" xmlns:xlink="http://www.w3.org/1999/xlink"><radialGradient id="a" cx="632.3389" cy="392.4808" gradientUnits="userSpaceOnUse" r="392.7092"><stop offset=".3" stop-color="#5c9dee"/><stop offset=".75" stop-color="#114da2"/></radialGradient><radialGradient id="b" cx="631.5192" cy="392.4809" gradientUnits="userSpaceOnUse" r="392.4809"><stop offset=".5" stop-color="#fefefe"/><stop offset="1" stop-color="#d5d8d3"/></radialGradient><ellipse cx="632.3" cy="392.5" fill="url(#a)" rx="391.7" ry="392.5"/><path d="m631.5 0c-216.7 0-392.5 175.7-392.5 392.5s175.8 392.5 392.5 392.5 392.5-175.8 392.5-392.5-175.7-392.5-392.5-392.5zm0 93.5c92.4.1 179.6 42.9 236.2 116h-472.1c56.5-73 143.6-115.8 235.9-116zm-283.1 203.8h361.9c-76.2 33.4-163.3 181.2-163.3 325.2v56.6c-127.1-37.5-214.4-154.1-214.4-286.6.1-32.4 5.4-64.6 15.8-95.2zm566.2.1c10.4 30.6 15.8 62.7 15.9 95.1-.1 159.6-125.6 291-285.1 298.5v-41.4c0-168.3 87.2-303.7 269.2-352.2z" fill="url(#b)"/><circle cx="224.2" cy="560.7" fill="#07111e" r="224.2"/><g clip-rule="evenodd" fill="#f0f0f0" fill-rule="evenodd"><path d="m162.4 469v91.8c0 34 27.6 61.6 61.6 61.6s61.6-27.6 61.6-61.6-27.6-61.5-61.6-61.5c-9.4 0-19.1 3-27.1 8.4v-38.7zm61.6 64.8c15 0 27.1 12.1 27.1 27.1s-12.1 27.1-27.1 27.1-27.1-12.1-27.1-27.1 12.1-27.1 27.1-27.1z"/><path d="m92.3 499.3c-34 0-61.6 27.6-61.6 61.6s27.6 61.6 61.6 61.6c10 0 20.4-4.3 27.7-11.4v10.3h33.8v-60.5c0-34.1-27.5-61.6-61.5-61.6zm0 34.5c15 0 27.1 12.1 27.1 27.1s-12.1 27.1-27.1 27.1-27.1-12.1-27.1-27.1 12.1-27.1 27.1-27.1z"/><path d="m355.9 499.3c-34 0-61.6 27.6-61.6 61.6s27.6 61.5 61.6 61.5c30.8 0 56.8-22.8 60.9-53.3h-35.1c-3.5 11-13.7 18.9-25.8 18.9-15 0-27.1-12.1-27.1-27.1s12.1-27.1 27.1-27.1c12.1 0 22.3 7.9 25.8 18.9h35.1c-4.1-30.6-30.1-53.4-60.9-53.4"/></g></svg>