<svg width="240" height="110" viewBox="0 0 240 110" fill="none" xmlns="http://www.w3.org/2000/svg">
<rect width="240" height="110" fill="white"/>
<path d="M209 47.7751H198.853C198.668 46.4623 198.289 45.2962 197.718 44.2768C197.146 43.242 196.413 42.3617 195.517 41.6358C194.621 40.9099 193.586 40.3539 192.412 39.9678C191.254 39.5817 189.995 39.3886 188.636 39.3886C186.18 39.3886 184.041 39.9987 182.219 41.2188C180.396 42.4235 178.983 44.1842 177.979 46.5009C176.975 48.8021 176.473 51.5976 176.473 54.8873C176.473 58.2697 176.975 61.1115 177.979 63.4128C178.999 65.7141 180.42 67.4516 182.242 68.6254C184.065 69.7992 186.173 70.3861 188.567 70.3861C189.91 70.3861 191.154 70.2085 192.297 69.8532C193.455 69.498 194.482 68.9806 195.378 68.3011C196.274 67.606 197.015 66.7643 197.602 65.7758C198.204 64.7874 198.621 63.6599 198.853 62.3935L209 62.4398C208.737 64.6175 208.081 66.718 207.031 68.7412C205.996 70.749 204.598 72.5483 202.838 74.1391C201.092 75.7145 199.007 76.9655 196.582 77.8922C194.173 78.8034 191.447 79.2591 188.405 79.2591C184.173 79.2591 180.389 78.3015 177.053 76.3863C173.732 74.4712 171.106 71.6989 169.176 68.0694C167.261 64.4399 166.303 60.0459 166.303 54.8873C166.303 49.7134 167.276 45.3116 169.222 41.6821C171.168 38.0526 173.809 35.288 177.145 33.3883C180.481 31.4732 184.234 30.5156 188.405 30.5156C191.154 30.5156 193.702 30.9017 196.05 31.674C198.413 32.4462 200.505 33.5737 202.328 35.0564C204.15 36.5236 205.633 38.3229 206.776 40.4543C207.934 42.5856 208.676 45.0259 209 47.7751Z" fill="#193676"/>
<path d="M124.006 78.6062V31.1602H143.003C146.493 31.1602 149.405 31.6776 151.737 32.7123C154.069 33.7471 155.822 35.1835 156.996 37.0214C158.17 38.8439 158.757 40.9444 158.757 43.3228C158.757 45.1762 158.386 46.8056 157.645 48.2111C156.903 49.6011 155.884 50.744 154.586 51.6398C153.305 52.5202 151.837 53.1457 150.185 53.5163V53.9797C151.992 54.0569 153.683 54.5666 155.258 55.5087C156.849 56.4508 158.139 57.7713 159.127 59.4703C160.116 61.1537 160.61 63.1615 160.61 65.4937C160.61 68.0112 159.984 70.2584 158.733 72.2353C157.498 74.1968 155.668 75.749 153.243 76.8919C150.818 78.0348 147.829 78.6062 144.277 78.6062H124.006ZM134.037 70.4051H142.215C145.011 70.4051 147.049 69.8723 148.331 68.8066C149.613 67.7255 150.254 66.2891 150.254 64.4975C150.254 63.1847 149.938 62.0264 149.304 61.0225C148.671 60.0186 147.768 59.2309 146.594 58.6594C145.435 58.088 144.053 57.8022 142.447 57.8022H134.037V70.4051ZM134.037 51.0143H141.474C142.849 51.0143 144.069 50.7749 145.134 50.2961C146.215 49.8019 147.065 49.1069 147.683 48.2111C148.316 47.3153 148.633 46.2419 148.633 44.9909C148.633 43.2765 148.022 41.8942 146.802 40.844C145.598 39.7937 143.883 39.2686 141.659 39.2686H134.037V51.0143Z" fill="#193676"/>
<path d="M83.3826 78.6062H72.6331L89.0122 31.1602H101.939L118.295 78.6062H107.546L95.6611 42.0023H95.2904L83.3826 78.6062ZM82.7107 59.9568H108.102V67.7872H82.7107V59.9568Z" fill="#193676"/>
<path d="M30.2258 78.6062V31.1602H40.2572V52.08H40.8827L57.9568 31.1602H69.9805L52.3735 52.4043L70.189 78.6062H58.1884L45.1917 59.0996L40.2572 65.123V78.6062H30.2258Z" fill="#193676"/>
</svg>
