<svg width="14" height="14" viewBox="0 0 14 14" fill="none" xmlns="http://www.w3.org/2000/svg">
<path fill-rule="evenodd" clip-rule="evenodd" d="M3.08 13.9296H0.07V4.26965H3.08V13.9296ZM1.54 3.07965C0.63 3.07965 0 2.44965 0 1.60965C0 0.769648 0.63 0.139648 1.61 0.139648C2.59 0.139648 3.15 0.769648 3.15 1.60965C3.15 2.44965 2.59 3.07965 1.54 3.07965ZM14 13.9296H10.99V8.60965C10.99 7.34965 10.57 6.50965 9.45 6.50965C8.61 6.50965 8.12 7.06965 7.91 7.62965C7.84 7.83965 7.84 8.11965 7.84 8.39965V13.9296H4.83V7.34965C4.83 6.15965 4.76 5.17965 4.76 4.26965H7.35L7.49 5.59965H7.56C7.98 4.96965 8.89 4.05965 10.5 4.05965C12.46 4.05965 13.93 5.38965 13.93 8.18965V13.9296H14Z" fill="#171717"/>
</svg>
