<svg width="36" height="37" viewBox="0 0 36 37" fill="none" xmlns="http://www.w3.org/2000/svg">
<rect y="0.5" width="36" height="36" rx="8" fill="#EE5B2C"/>
<path d="M8 8.70166L11 7.35938V27.3594C9.09514 25.4378 8 22.8663 8 20.1888V8.70166Z" fill="#F6F8FF"/>
<path d="M18.2931 4.35938L12 6.74287V28.6284L18.2931 32.3594L24.8439 28.4569C24.8984 28.4254 24.9492 28.3939 25 28.3589V6.90037L18.2931 4.35938ZM22.2817 14.9119H20.3691V9.8264L18.2786 9.14737L16.2172 9.83337V25.8914L18.2713 27.1269L20.3654 25.7899V20.2809H22.278V26.7769L18.304 29.3144L14.301 26.9134V8.51737L18.2677 7.19788L22.278 8.49987V14.9119H22.2817Z" fill="#F6F8FF"/>
<path d="M29 8.57579V20.3841C29 22.9658 27.9097 25.4458 26 27.3594V7.35938L29 8.57579Z" fill="#F6F8FF"/>
</svg>
