<svg width="46" height="47" viewBox="0 0 46 47" fill="none" xmlns="http://www.w3.org/2000/svg">
<path d="M31.97 9.47C31.97 14.424 27.954 18.44 23 18.44C18.046 18.44 14.03 14.424 14.03 9.47C14.03 4.51601 18.046 0.5 23 0.5C27.954 0.5 31.97 4.51601 31.97 9.47Z" fill="white"/>
<path d="M31.97 37.53C31.97 42.484 27.954 46.5 23 46.5C18.046 46.5 14.03 42.484 14.03 37.53C14.03 32.576 18.046 28.56 23 28.56C27.954 28.56 31.97 32.576 31.97 37.53Z" fill="white"/>
<path d="M37.03 32.47C32.076 32.47 28.06 28.454 28.06 23.5C28.06 18.546 32.076 14.53 37.03 14.53C41.984 14.53 46 18.546 46 23.5C46 28.454 41.984 32.47 37.03 32.47Z" fill="white"/>
<path d="M8.97 32.47C4.01601 32.47 -2.16546e-07 28.454 0 23.5C2.16546e-07 18.546 4.01601 14.53 8.97 14.53C13.924 14.53 17.94 18.546 17.94 23.5C17.94 28.454 13.924 32.47 8.97 32.47Z" fill="white"/>
</svg>
