<svg width="47" height="47" viewBox="0 0 47 47" fill="none" xmlns="http://www.w3.org/2000/svg">
<path d="M46 23.5C46 36.2025 35.7025 46.5 23 46.5C31.6377 46.5 38.64 39.4977 38.64 30.86C38.64 22.2223 31.6377 15.22 23 15.22C14.3623 15.22 7.36 22.2223 7.36 30.86C7.36 39.4977 14.3623 46.5 23 46.5C10.2975 46.5 0 36.2025 0 23.5C0 10.7975 10.2975 0.5 23 0.5C35.7025 0.5 46 10.7975 46 23.5Z" fill="white"/>
<path d="M23 46.5C16.9028 46.5 11.96 41.5572 11.96 35.46C11.96 29.3628 16.9028 24.42 23 24.42C29.0972 24.42 34.04 29.3628 34.04 35.46C34.04 41.5572 29.0972 46.5 23 46.5Z" fill="white"/>
</svg>
