<svg width="49" height="60" viewBox="0 0 49 60" fill="none" xmlns="http://www.w3.org/2000/svg">
<path d="M0 9.51699L7.29535 6.66699V49.132C2.66314 45.052 0 39.592 0 33.907V9.51699Z" fill="#EE5B2C"/>
<path d="M24.3563 0L11.2744 5.10749V52.005L24.3563 60L37.9738 51.6375C38.0869 51.57 38.1925 51.5025 38.2982 51.4275V5.445L24.3563 0ZM32.6474 22.6125H28.6716V11.715L24.3261 10.26L20.041 11.73V46.14L24.311 48.7875L28.664 45.9225V34.1175H32.6399V48.0375L24.3789 53.475L16.0576 48.33V8.91L24.3035 6.0825L32.6399 8.87249V22.6125H32.6474Z" fill="#EE5B2C"/>
<path d="M48.7097 9.51738V33.9074C48.7097 39.2399 46.3709 44.3623 42.2744 48.3149V7.00488L48.7097 9.51738Z" fill="#EE5B2C"/>
</svg>
