<svg width="1512" height="1103" viewBox="0 0 1512 1103" fill="none" xmlns="http://www.w3.org/2000/svg">
<g clip-path="url(#clip0_12_1880)">
<rect width="1512" height="1102" transform="translate(0 0.5)" fill="#13191D"/>
<g style="mix-blend-mode:color-dodge" opacity="0.03">
<path d="M36.4309 505L-240.037 613.364V1608.37L36.4309 1778L324.218 1600.58C326.61 1599.14 328.841 1597.71 331.074 1596.12V620.525L36.4309 505ZM211.653 984.762H127.63V753.554L35.7932 722.683L-54.7681 753.872V1483.94L35.4732 1540.11L127.469 1479.32V1228.86H211.494V1524.2L36.9077 1639.56L-138.952 1530.4V694.041L35.3143 634.05L211.494 693.245V984.762H211.653Z" fill="#F6F8FF"/>
<path d="M550 707.338V1224.94C550 1338.11 500.416 1446.81 413.568 1530.69V654.019L550 707.338Z" fill="#F6F8FF"/>
<path d="M962 706.631L1115.88 646.092V1548.13C1018.17 1461.46 962 1345.48 962 1224.72V706.631Z" fill="#F6F8FF"/>
<path d="M1476.43 505L1199.96 613.364V1608.37L1476.43 1778L1764.22 1600.58C1766.61 1599.14 1768.84 1597.71 1771.07 1596.12V620.525L1476.43 505ZM1651.65 984.762H1567.63V753.554L1475.79 722.683L1385.23 753.872V1483.94L1475.47 1540.11L1567.47 1479.32V1228.86H1651.49V1524.2L1476.91 1639.56L1301.05 1530.4V694.041L1475.31 634.05L1651.49 693.245V984.762H1651.65Z" fill="#F6F8FF"/>
<path d="M242 1086.63L395.883 1026.09V1928.13C298.174 1841.46 242 1725.48 242 1604.72V1086.63Z" fill="#F6F8FF"/>
<path d="M756.431 885L479.963 993.364V1988.37L756.431 2158L1044.22 1980.58C1046.61 1979.14 1048.84 1977.71 1051.07 1976.12V1000.52L756.431 885ZM931.653 1364.76H847.63V1133.55L755.793 1102.68L665.232 1133.87V1863.94L755.473 1920.11L847.469 1859.32V1608.86H931.494V1904.2L756.908 2019.56L581.048 1910.4V1074.04L755.314 1014.05L931.494 1073.24V1364.76H931.653Z" fill="#F6F8FF"/>
<path d="M1270 1087.34V1604.94C1270 1718.11 1220.42 1826.81 1133.57 1910.69V1034.02L1270 1087.34Z" fill="#F6F8FF"/>
</g>
</g>
<defs>
<clipPath id="clip0_12_1880">
<rect width="1512" height="1102" fill="white" transform="translate(0 0.5)"/>
</clipPath>
</defs>
</svg>
