<svg width="46" height="47" viewBox="0 0 46 47" fill="none" xmlns="http://www.w3.org/2000/svg">
<g clip-path="url(#clip0_284_7971)">
<path d="M39.263 39.7635C34.9497 44.0768 29.0996 46.5 22.9997 46.5V23.5518C22.9718 29.8792 17.8339 35 11.4999 35C5.14868 35 2.77621e-07 29.8513 0 23.5C-2.77621e-07 17.1487 5.14868 12 11.4999 12C17.8339 12 22.9718 17.1208 22.9997 23.4482L22.9997 0.5C29.0996 0.500001 34.9497 2.92321 39.263 7.23655C43.5763 11.5499 45.9995 17.4 45.9995 23.5C45.9995 29.6 43.5763 35.4501 39.263 39.7635Z" fill="white"/>
</g>
<defs>
<clipPath id="clip0_284_7971">
<rect width="46" height="46" fill="white" transform="translate(0 0.5)"/>
</clipPath>
</defs>
</svg>
