<svg width="265" height="147" viewBox="0 0 265 147" fill="none" xmlns="http://www.w3.org/2000/svg">
<path d="M91.5686 9.96196C91.5686 14.1394 98.2644 17.526 93.605 17.526C88.9456 17.526 85.1685 14.1394 85.1685 9.96196C85.1685 5.78447 88.9456 2.39795 93.605 2.39795C98.2644 2.39795 91.5686 5.78447 91.5686 9.96196Z" fill="#FE964A"/>
<path d="M157.73 6.31274L158.862 9.79715H162.526L159.562 11.9506L160.694 15.435L157.73 13.2815L154.766 15.435L155.898 11.9506L152.934 9.79715H156.598L157.73 6.31274Z" fill="#FE964A"/>
<path d="M33.8784 79.968C33.8784 79.968 44.6265 74.6147 47.0648 77.4206C48.4043 78.9621 49.4159 80.8291 48.2162 82.346C47.2914 83.5153 45.9563 83.6644 44.3919 83.3896C41.0791 82.8079 41.1293 78.2074 42.4591 75.3582C44.2952 71.4244 54.0417 73.7463 54.0417 73.7463" stroke="#1986C3" stroke-width="2.01707"/>
<circle cx="228.717" cy="74.605" r="5.88312" fill="#FFEDEC"/>
<path d="M55.5474 136.303L56.3844 129.084L62.2199 132.783L62.8851 126.726L68.2079 130.393L69.8656 123.845" stroke="#2F78EE" stroke-width="1.68089"/>
<path d="M192.801 22.2377C192.801 22.2377 191.982 17.3769 194.331 16.4081C196.303 15.5942 198.014 19.1936 199.635 17.8886C201.277 16.5668 197.178 14.4728 198.513 12.8919C199.918 11.228 204.429 12.8919 204.429 12.8919" stroke="#2F78EE" stroke-width="2.01707"/>
<path d="M32.4552 14.9524L54.0615 25.7086L48.6613 33.0729L32.4552 14.9524Z" fill="#2F78EE"/>
<circle cx="223.846" cy="94.6253" r="2.52134" fill="#FFEDEC"/>
<path d="M199.616 127.815C202.387 128.094 205.08 123.878 204.769 126.969C204.458 130.059 201.96 132.339 199.189 132.06C196.418 131.781 194.424 129.049 194.735 125.959C195.046 122.868 196.845 127.536 199.616 127.815Z" fill="#2F78EE"/>
<path d="M208.61 39.3057L210.497 45.113H216.603L211.663 48.7021L213.55 54.5095L208.61 50.9203L203.67 54.5095L205.557 48.7021L200.617 45.113H206.723L208.61 39.3057Z" fill="#1986C3"/>
<rect x="82.2998" y="26.1357" width="100" height="100" rx="50" fill="#1986C3"/>
<rect x="102.3" y="46.1357" width="60" height="60" rx="30" fill="white"/>
<path fill-rule="evenodd" clip-rule="evenodd" d="M143.184 69.0019C143.672 69.49 143.672 70.2815 143.184 70.7696L130.684 83.2696C130.196 83.7578 129.404 83.7578 128.916 83.2696L122.666 77.0196C122.178 76.5315 122.178 75.74 122.666 75.2519C123.154 74.7637 123.946 74.7637 124.434 75.2519L129.8 80.618L141.416 69.0019C141.904 68.5137 142.696 68.5137 143.184 69.0019Z" fill="#111827"/>
</svg>
