<?xml version="1.0" encoding="utf-8"?>
<!-- Generator: Adobe Illustrator 27.5.0, SVG Export Plug-In . SVG Version: 6.00 Build 0)  -->
<svg version="1.1" id="Layer_1" xmlns="http://www.w3.org/2000/svg" xmlns:xlink="http://www.w3.org/1999/xlink" x="0px" y="0px"
	 viewBox="0 0 46 47" style="enable-background:new 0 0 46 47;" xml:space="preserve">
<style type="text/css">
	.st0{fill:#FFFFFF;}
</style>
<path class="st0" d="M182.3-4c0,10.8-8.8,19.6-19.6,19.6c-10.8,0-19.6-8.8-19.6-19.6h19.6v-19.6C173.5-23.6,182.3-14.8,182.3-4z"/>
<g>
	<path class="st0" d="M27.6,5C17.4,2.5,7.1,8.7,4.5,18.9C2,29.1,8.2,39.4,18.4,42c10.2,2.6,20.5-3.6,23.1-13.8S37.8,7.6,27.6,5z
		 M33.7,26.2c-1.5,5.9-7.4,9.5-13.3,8c-5.9-1.5-9.5-7.4-8-13.3c1.5-5.9,7.4-9.5,13.3-8C31.5,14.3,35.1,20.3,33.7,26.2z"/>
	<path class="st0" d="M24.1,19.1c-2.4-0.6-4.8,0.9-5.4,3.3c-0.6,2.4,0.9,4.8,3.3,5.4c2.4,0.6,4.8-0.9,5.4-3.3
		C28,22.2,26.5,19.7,24.1,19.1z"/>
</g>
</svg>
