<?xml version="1.0" encoding="utf-8"?>
<!-- Generator: Adobe Illustrator 27.5.0, SVG Export Plug-In . SVG Version: 6.00 Build 0)  -->
<svg version="1.1" id="Layer_1" xmlns="http://www.w3.org/2000/svg" xmlns:xlink="http://www.w3.org/1999/xlink" x="0px" y="0px"
	 viewBox="0 0 46 47" style="enable-background:new 0 0 46 47;" xml:space="preserve">
<style type="text/css">
	.st0{fill:#FFFFFF;}
</style>
<path class="st0" d="M182.3-4c0,10.8-8.8,19.6-19.6,19.6c-10.8,0-19.6-8.8-19.6-19.6h19.6v-19.6C173.5-23.6,182.3-14.8,182.3-4z"/>
<g>
	<path class="st0" d="M28,3.5C17,0.8,5.8,7.5,3,18.5c-2.8,11,3.9,22.2,15,25c11,2.8,22.2-3.9,25-15C45.7,17.5,39,6.3,28,3.5z
		 M34.5,26.4c-1.6,6.4-8,10.2-14.4,8.6c-6.4-1.6-10.2-8-8.6-14.4c1.6-6.4,8-10.2,14.4-8.6C32.2,13.6,36.1,20,34.5,26.4z"/>
	<polygon class="st0" points="17.4,14.2 18.2,22.3 13.7,29.1 21.8,28.3 28.6,32.8 27.8,24.7 32.3,17.9 24.2,18.7 	"/>
</g>
</svg>
